<svg width="418" height="269" viewBox="0 0 418 269" fill="none" xmlns="http://www.w3.org/2000/svg">
<rect width="418" height="269" rx="16" transform="matrix(-1 0 0 1 418 0)" fill="url(#paint0_linear)"/>
<rect y="21" width="418" height="44" fill="url(#paint1_linear)"/>
<path fill-rule="evenodd" clip-rule="evenodd" d="M349.46 182.958C348.771 183.682 348.256 184.822 348.256 186.459C348.256 189.482 348.918 192.347 350.105 194.92C350.317 195.381 350.116 195.927 349.655 196.139C349.194 196.352 348.648 196.151 348.436 195.69C347.14 192.88 346.418 189.753 346.418 186.459C346.418 184.421 347.069 182.805 348.128 181.691C349.183 180.583 350.592 180.027 352 180.027C353.408 180.027 354.817 180.583 355.872 181.691C356.932 182.805 357.582 184.421 357.582 186.459C357.582 191.691 355.76 196.5 352.716 200.284C352.398 200.68 351.82 200.742 351.424 200.424C351.029 200.106 350.966 199.528 351.284 199.132C354.075 195.663 355.744 191.257 355.744 186.459C355.744 184.822 355.229 183.682 354.54 182.958C353.846 182.228 352.924 181.865 352 181.865C351.076 181.865 350.154 182.228 349.46 182.958ZM330.694 199.103C331.808 198.045 333.426 197.396 335.467 197.396C340.704 197.396 345.518 199.215 349.307 202.255C349.703 202.573 349.767 203.151 349.449 203.547C349.131 203.943 348.553 204.006 348.157 203.689C344.683 200.901 340.271 199.233 335.467 199.233C333.826 199.233 332.684 199.748 331.959 200.436C331.228 201.13 330.865 202.05 330.865 202.972C330.865 203.894 331.228 204.814 331.959 205.507C332.684 206.196 333.826 206.71 335.467 206.71C338.418 206.71 341.284 206.047 343.921 204.833C344.382 204.621 344.927 204.822 345.14 205.283C345.352 205.744 345.151 206.29 344.69 206.502C341.823 207.823 338.695 208.548 335.467 208.548C333.426 208.548 331.808 207.899 330.694 206.84C329.584 205.787 329.027 204.379 329.027 202.972C329.027 201.565 329.584 200.157 330.694 199.103ZM359.215 199.447C362.048 198.13 365.206 197.396 368.534 197.396C370.574 197.396 372.192 198.045 373.307 199.103C374.416 200.157 374.973 201.565 374.973 202.972C374.973 204.379 374.416 205.787 373.307 206.84C372.192 207.899 370.574 208.548 368.534 208.548C363.296 208.548 358.482 206.729 354.693 203.689C354.297 203.371 354.234 202.793 354.551 202.397C354.869 202.001 355.447 201.938 355.843 202.255C359.317 205.043 363.729 206.71 368.534 206.71C370.174 206.71 371.316 206.196 372.041 205.507C372.772 204.814 373.135 203.894 373.135 202.972C373.135 202.05 372.772 201.13 372.041 200.436C371.316 199.748 370.174 199.233 368.534 199.233C365.479 199.233 362.585 199.907 359.989 201.114C359.529 201.327 358.982 201.128 358.769 200.667C358.555 200.207 358.754 199.661 359.215 199.447ZM352.576 205.52C352.972 205.838 353.034 206.416 352.716 206.812C349.925 210.281 348.256 214.687 348.256 219.484C348.256 221.143 348.772 222.299 349.463 223.032C350.158 223.77 351.079 224.135 352 224.135C352.921 224.135 353.842 223.77 354.537 223.032C355.228 222.299 355.744 221.143 355.744 219.484C355.744 216.454 355.079 213.582 353.886 211.003C353.673 210.542 353.874 209.996 354.334 209.783C354.795 209.57 355.341 209.771 355.554 210.231C356.856 213.047 357.582 216.182 357.582 219.484C357.582 221.539 356.933 223.168 355.875 224.292C354.822 225.41 353.411 225.973 352 225.973C350.589 225.973 349.179 225.41 348.125 224.292C347.067 223.168 346.418 221.539 346.418 219.484C346.418 214.253 348.24 209.444 351.284 205.66C351.602 205.264 352.181 205.201 352.576 205.52Z" fill="white"/>
<path fill-rule="evenodd" clip-rule="evenodd" d="M322.595 200.243C321.072 200.243 319.838 201.478 319.838 203C319.838 204.523 321.072 205.757 322.595 205.757C324.117 205.757 325.351 204.523 325.351 203C325.351 201.478 324.117 200.243 322.595 200.243ZM318 203C318 200.463 320.057 198.405 322.595 198.405C325.132 198.405 327.189 200.463 327.189 203C327.189 205.538 325.132 207.595 322.595 207.595C320.057 207.595 318 205.538 318 203Z" fill="white"/>
<path fill-rule="evenodd" clip-rule="evenodd" d="M352 229.649C350.477 229.649 349.243 230.883 349.243 232.405C349.243 233.928 350.477 235.162 352 235.162C353.523 235.162 354.757 233.928 354.757 232.405C354.757 230.883 353.523 229.649 352 229.649ZM347.405 232.405C347.405 229.868 349.462 227.811 352 227.811C354.538 227.811 356.595 229.868 356.595 232.405C356.595 234.943 354.538 237 352 237C349.462 237 347.405 234.943 347.405 232.405Z" fill="white"/>
<path fill-rule="evenodd" clip-rule="evenodd" d="M352 170.838C350.477 170.838 349.243 172.072 349.243 173.595C349.243 175.117 350.477 176.351 352 176.351C353.523 176.351 354.757 175.117 354.757 173.595C354.757 172.072 353.523 170.838 352 170.838ZM347.405 173.595C347.405 171.057 349.462 169 352 169C354.538 169 356.595 171.057 356.595 173.595C356.595 176.132 354.538 178.189 352 178.189C349.462 178.189 347.405 176.132 347.405 173.595Z" fill="white"/>
<path fill-rule="evenodd" clip-rule="evenodd" d="M381.405 200.243C379.883 200.243 378.649 201.478 378.649 203C378.649 204.523 379.883 205.757 381.405 205.757C382.928 205.757 384.162 204.523 384.162 203C384.162 201.478 382.928 200.243 381.405 200.243ZM376.811 203C376.811 200.463 378.868 198.405 381.405 198.405C383.943 198.405 386 200.463 386 203C386 205.538 383.943 207.595 381.405 207.595C378.868 207.595 376.811 205.538 376.811 203Z" fill="white"/>
<defs>
<linearGradient id="paint0_linear" x1="418" y1="1.93259e-05" x2="0.200783" y2="269.311" gradientUnits="userSpaceOnUse">
<stop stop-color="#7FCAF5"/>
<stop offset="1" stop-color="#6CF598"/>
</linearGradient>
<linearGradient id="paint1_linear" x1="418" y1="64.9998" x2="-3.4063e-06" y2="64.9998" gradientUnits="userSpaceOnUse">
<stop stop-color="white" stop-opacity="0.2"/>
<stop offset="0.207018" stop-color="white" stop-opacity="0.5"/>
<stop offset="1" stop-color="white" stop-opacity="0.2"/>
</linearGradient>
</defs>
</svg>
