<svg width="209" height="195" viewBox="0 0 209 195" fill="none" xmlns="http://www.w3.org/2000/svg">
<path d="M1 21.9533C1 17.5351 4.58172 13.9534 9 13.9534H163.996C166.156 13.9534 168.225 13.0796 169.731 11.5309L179 2L189.311 11.7626C190.797 13.1694 192.765 13.9534 194.811 13.9534H200C204.418 13.9534 208 17.5351 208 21.9534V186C208 190.418 204.418 194 200 194H9C4.58172 194 1 190.418 1 186V21.9533Z" fill="white"/>
<path d="M179.344 1.63692L178.986 1.29773L178.642 1.6514L169.372 11.1823C167.96 12.6342 166.021 13.4534 163.996 13.4534H9C4.30558 13.4534 0.5 17.2589 0.5 21.9533V186C0.5 190.694 4.30558 194.5 9 194.5H200C204.694 194.5 208.5 190.694 208.5 186V21.9534C208.5 17.2589 204.694 13.4534 200 13.4534H194.811C192.893 13.4534 191.048 12.7184 189.655 11.3995L179.344 1.63692Z" stroke="black" stroke-opacity="0.1"/>
</svg>
