<svg width="418" height="269" viewBox="0 0 418 269" fill="none" xmlns="http://www.w3.org/2000/svg">
<g clip-path="url(#clip0)">
<rect width="418" height="269" rx="16" fill="url(#paint0_linear)"/>
<path opacity="0.4" d="M354.855 57.9999C354.855 72.3623 343.249 83.9997 328.927 83.9997C314.606 83.9997 303 72.3597 303 57.9999C303 43.64 314.609 32 328.927 32C343.246 32 354.855 43.64 354.855 57.9999Z" fill="white"/>
<path d="M360.067 32C354.252 32 348.899 33.9422 344.573 37.1845L344.594 37.1871C345.445 38.0112 346.383 38.5912 347.107 39.5399L341.712 39.6258C340.867 40.4813 340.097 41.412 339.37 42.3793H348.883C349.607 43.2502 350.276 44.007 350.883 44.9688H337.646C337.161 45.8061 336.712 46.6667 336.321 47.561H352.39C352.81 48.4527 353.186 49.1262 353.505 50.0701H335.369C335.081 50.9672 334.835 51.8849 334.648 52.8208H354.265C354.457 53.7204 354.605 54.5523 354.706 55.4H334.259C334.173 56.2555 334.129 57.1238 334.129 58.0001H354.854C354.854 58.9206 354.789 59.7733 354.696 60.6002H334.259C334.347 61.4817 334.477 62.3474 334.648 63.2003H354.234C354.032 64.0427 353.798 64.8902 353.505 65.7691H335.309C335.584 66.6582 335.919 67.5214 336.284 68.3638H352.39C351.944 69.3102 351.438 70.0667 350.881 70.9533H337.599C338.123 71.8633 338.702 72.7316 339.329 73.5637L348.884 73.7065C348.069 74.6866 347.024 75.2769 346.072 76.135C346.124 76.1766 344.55 76.1298 341.45 76.0805C346.165 80.9582 352.756 84 360.066 84C374.391 84 386.002 72.3597 386.002 58.0001C386.002 43.6406 374.393 32 360.067 32Z" fill="white"/>
<path d="M40.136 230.456C38.584 230.456 37.272 230.208 36.2 229.712C35.144 229.216 34.336 228.536 33.776 227.672C33.216 226.792 32.936 225.8 32.936 224.696H36.272C36.272 225.16 36.4 225.616 36.656 226.064C36.912 226.496 37.32 226.848 37.88 227.12C38.456 227.392 39.208 227.528 40.136 227.528C40.968 227.528 41.664 227.408 42.224 227.168C42.784 226.928 43.2 226.616 43.472 226.232C43.744 225.832 43.88 225.384 43.88 224.888C43.88 224.264 43.616 223.768 43.088 223.4C42.56 223.016 41.744 222.776 40.64 222.68L39.104 222.56C37.424 222.416 36.08 221.896 35.072 221C34.08 220.088 33.584 218.888 33.584 217.4C33.584 216.28 33.848 215.32 34.376 214.52C34.904 213.704 35.64 213.08 36.584 212.648C37.544 212.2 38.664 211.976 39.944 211.976C41.272 211.976 42.416 212.208 43.376 212.672C44.336 213.136 45.08 213.792 45.608 214.64C46.136 215.472 46.4 216.456 46.4 217.592H43.064C43.064 217.112 42.944 216.672 42.704 216.272C42.48 215.856 42.136 215.528 41.672 215.288C41.224 215.032 40.648 214.904 39.944 214.904C39.272 214.904 38.712 215.016 38.264 215.24C37.816 215.464 37.48 215.768 37.256 216.152C37.032 216.536 36.92 216.952 36.92 217.4C36.92 217.944 37.12 218.424 37.52 218.84C37.92 219.24 38.552 219.472 39.416 219.536L40.952 219.68C42.2 219.776 43.296 220.04 44.24 220.472C45.184 220.904 45.912 221.488 46.424 222.224C46.952 222.96 47.216 223.848 47.216 224.888C47.216 225.992 46.928 226.968 46.352 227.816C45.776 228.648 44.952 229.296 43.88 229.76C42.824 230.224 41.576 230.456 40.136 230.456ZM55.8999 230.456C54.7799 230.456 53.7959 230.264 52.9479 229.88C52.1159 229.496 51.4199 228.984 50.8599 228.344C50.3159 227.688 49.8999 226.96 49.6119 226.16C49.3399 225.36 49.2039 224.544 49.2039 223.712V223.256C49.2039 222.392 49.3399 221.56 49.6119 220.76C49.8999 219.944 50.3159 219.224 50.8599 218.6C51.4199 217.96 52.1079 217.456 52.9239 217.088C53.7399 216.704 54.6839 216.512 55.7559 216.512C57.1639 216.512 58.3399 216.824 59.2839 217.448C60.2439 218.056 60.9639 218.864 61.4439 219.872C61.9239 220.864 62.1639 221.936 62.1639 223.088V224.288H50.6199V222.248H60.0759L59.0439 223.256C59.0439 222.424 58.9239 221.712 58.6839 221.12C58.4439 220.528 58.0759 220.072 57.5799 219.752C57.0999 219.432 56.4919 219.272 55.7559 219.272C55.0199 219.272 54.3959 219.44 53.8839 219.776C53.3719 220.112 52.9799 220.6 52.7079 221.24C52.4519 221.864 52.3239 222.616 52.3239 223.496C52.3239 224.312 52.4519 225.04 52.7079 225.68C52.9639 226.304 53.3559 226.8 53.8839 227.168C54.4119 227.52 55.0839 227.696 55.8999 227.696C56.7159 227.696 57.3799 227.536 57.8919 227.216C58.4039 226.88 58.7319 226.472 58.8759 225.992H61.9479C61.7559 226.888 61.3879 227.672 60.8439 228.344C60.2999 229.016 59.6039 229.536 58.7559 229.904C57.9239 230.272 56.9719 230.456 55.8999 230.456ZM69.3907 230.408C67.8867 230.408 66.7187 229.912 65.8867 228.92C65.0707 227.928 64.6627 226.456 64.6627 224.504V216.944H67.9987V224.792C67.9987 225.592 68.2227 226.232 68.6707 226.712C69.1187 227.176 69.7267 227.408 70.4947 227.408C71.2627 227.408 71.8867 227.16 72.3667 226.664C72.8627 226.168 73.1107 225.496 73.1107 224.648V216.944H76.4467V230H73.8067V224.456H74.0707C74.0707 225.768 73.9027 226.864 73.5667 227.744C73.2307 228.624 72.7267 229.288 72.0547 229.736C71.3827 230.184 70.5427 230.408 69.5347 230.408H69.3907ZM85.4585 230V216.968H88.0985V222.56H87.8585C87.8585 221.232 88.0345 220.128 88.3865 219.248C88.7385 218.352 89.2585 217.68 89.9465 217.232C90.6505 216.784 91.5225 216.56 92.5625 216.56H92.7065C94.2585 216.56 95.4345 217.064 96.2345 218.072C97.0345 219.064 97.4345 220.552 97.4345 222.536V230H94.0985V222.248C94.0985 221.448 93.8665 220.8 93.4025 220.304C92.9545 219.808 92.3305 219.56 91.5305 219.56C90.7145 219.56 90.0505 219.816 89.5385 220.328C89.0425 220.824 88.7945 221.496 88.7945 222.344V230H85.4585ZM107.285 230.456C106.133 230.456 105.117 230.272 104.237 229.904C103.357 229.536 102.613 229.04 102.005 228.416C101.397 227.776 100.933 227.056 100.613 226.256C100.309 225.456 100.157 224.624 100.157 223.76V223.256C100.157 222.36 100.317 221.512 100.637 220.712C100.973 219.896 101.445 219.176 102.053 218.552C102.677 217.912 103.429 217.416 104.309 217.064C105.189 216.696 106.181 216.512 107.285 216.512C108.389 216.512 109.381 216.696 110.261 217.064C111.141 217.416 111.885 217.912 112.493 218.552C113.117 219.176 113.589 219.896 113.909 220.712C114.229 221.512 114.389 222.36 114.389 223.256V223.76C114.389 224.624 114.229 225.456 113.909 226.256C113.605 227.056 113.149 227.776 112.541 228.416C111.933 229.04 111.189 229.536 110.309 229.904C109.429 230.272 108.421 230.456 107.285 230.456ZM107.285 227.6C108.101 227.6 108.789 227.424 109.349 227.072C109.909 226.704 110.333 226.216 110.621 225.608C110.909 224.984 111.053 224.28 111.053 223.496C111.053 222.696 110.901 221.992 110.597 221.384C110.309 220.76 109.877 220.272 109.301 219.92C108.741 219.552 108.069 219.368 107.285 219.368C106.501 219.368 105.821 219.552 105.245 219.92C104.685 220.272 104.253 220.76 103.949 221.384C103.645 221.992 103.493 222.696 103.493 223.496C103.493 224.28 103.637 224.984 103.925 225.608C104.229 226.216 104.661 226.704 105.221 227.072C105.781 227.424 106.469 227.6 107.285 227.6ZM117.31 230V216.968H119.95V222.56H119.71C119.71 221.248 119.878 220.152 120.214 219.272C120.55 218.376 121.046 217.704 121.702 217.256C122.374 216.792 123.206 216.56 124.198 216.56H124.342C125.35 216.56 126.182 216.792 126.838 217.256C127.51 217.704 128.006 218.376 128.326 219.272C128.662 220.152 128.83 221.248 128.83 222.56H127.99C127.99 221.248 128.158 220.152 128.494 219.272C128.846 218.376 129.35 217.704 130.006 217.256C130.678 216.792 131.51 216.56 132.502 216.56H132.646C133.654 216.56 134.494 216.792 135.166 217.256C135.838 217.704 136.342 218.376 136.678 219.272C137.03 220.152 137.206 221.248 137.206 222.56V230H133.87V222.248C133.87 221.432 133.662 220.784 133.246 220.304C132.83 219.808 132.238 219.56 131.47 219.56C130.702 219.56 130.086 219.816 129.622 220.328C129.158 220.824 128.926 221.496 128.926 222.344V230H125.59V222.248C125.59 221.432 125.382 220.784 124.966 220.304C124.55 219.808 123.958 219.56 123.19 219.56C122.422 219.56 121.806 219.816 121.342 220.328C120.878 220.824 120.646 221.496 120.646 222.344V230H117.31ZM146.603 230.456C145.483 230.456 144.499 230.264 143.651 229.88C142.819 229.496 142.123 228.984 141.563 228.344C141.019 227.688 140.603 226.96 140.315 226.16C140.043 225.36 139.907 224.544 139.907 223.712V223.256C139.907 222.392 140.043 221.56 140.315 220.76C140.603 219.944 141.019 219.224 141.563 218.6C142.123 217.96 142.811 217.456 143.627 217.088C144.443 216.704 145.387 216.512 146.459 216.512C147.867 216.512 149.043 216.824 149.987 217.448C150.947 218.056 151.667 218.864 152.147 219.872C152.627 220.864 152.867 221.936 152.867 223.088V224.288H141.323V222.248H150.779L149.747 223.256C149.747 222.424 149.627 221.712 149.387 221.12C149.147 220.528 148.779 220.072 148.283 219.752C147.803 219.432 147.195 219.272 146.459 219.272C145.723 219.272 145.099 219.44 144.587 219.776C144.075 220.112 143.683 220.6 143.411 221.24C143.155 221.864 143.027 222.616 143.027 223.496C143.027 224.312 143.155 225.04 143.411 225.68C143.667 226.304 144.059 226.8 144.587 227.168C145.115 227.52 145.787 227.696 146.603 227.696C147.419 227.696 148.083 227.536 148.595 227.216C149.107 226.88 149.435 226.472 149.579 225.992H152.651C152.459 226.888 152.091 227.672 151.547 228.344C151.003 229.016 150.307 229.536 149.459 229.904C148.627 230.272 147.675 230.456 146.603 230.456Z" fill="white"/>
<path d="M35.33 195V183.444L36.122 184.056H32.648V181.86H37.868V195H35.33ZM40.8165 195V192.48C40.8165 191.928 40.9005 191.448 41.0685 191.04C41.2485 190.632 41.5365 190.272 41.9325 189.96C42.3405 189.636 42.8745 189.33 43.5345 189.042L45.7665 188.052C46.3185 187.8 46.7385 187.494 47.0265 187.134C47.3265 186.762 47.4765 186.288 47.4765 185.712C47.4765 185.076 47.2845 184.572 46.9005 184.2C46.5285 183.816 45.9945 183.624 45.2985 183.624C44.6025 183.624 44.0625 183.816 43.6785 184.2C43.3065 184.584 43.1205 185.118 43.1205 185.802H40.6545C40.6545 184.986 40.8285 184.254 41.1765 183.606C41.5245 182.946 42.0405 182.43 42.7245 182.058C43.4085 181.674 44.2665 181.482 45.2985 181.482C46.3305 181.482 47.1885 181.668 47.8725 182.04C48.5565 182.412 49.0725 182.91 49.4205 183.534C49.7685 184.146 49.9425 184.83 49.9425 185.586V185.82C49.9425 186.804 49.6665 187.626 49.1145 188.286C48.5625 188.934 47.7525 189.498 46.6845 189.978L44.4525 190.968C44.0325 191.148 43.7385 191.34 43.5705 191.544C43.4025 191.736 43.3185 192 43.3185 192.336V193.488L42.7065 192.822H49.9965V195H40.8165ZM56.4396 195.342C55.4316 195.342 54.5616 195.15 53.8296 194.766C53.1096 194.382 52.5576 193.872 52.1736 193.236C51.7896 192.588 51.5976 191.868 51.5976 191.076H54.0636C54.0636 191.712 54.2736 192.228 54.6936 192.624C55.1256 193.008 55.7076 193.2 56.4396 193.2C56.9316 193.2 57.3516 193.11 57.6996 192.93C58.0596 192.738 58.3356 192.48 58.5276 192.156C58.7196 191.82 58.8156 191.436 58.8156 191.004C58.8156 190.356 58.6056 189.828 58.1856 189.42C57.7656 189 57.1896 188.79 56.4576 188.79C56.0976 188.79 55.7796 188.838 55.5036 188.934C55.2396 189.03 55.0056 189.156 54.8016 189.312L53.6316 187.296L57.9516 184.344L57.7896 184.038H52.1376V181.86H60.7236V184.488L56.2776 187.44L54.8916 187.188C55.1196 187.116 55.3656 187.062 55.6296 187.026C55.8936 186.978 56.1816 186.954 56.4936 186.954C57.4896 186.954 58.3416 187.128 59.0496 187.476C59.7696 187.812 60.3216 188.28 60.7056 188.88C61.0896 189.48 61.2816 190.17 61.2816 190.95V191.184C61.2816 191.94 61.0896 192.636 60.7056 193.272C60.3216 193.896 59.7696 194.4 59.0496 194.784C58.3296 195.156 57.4596 195.342 56.4396 195.342ZM62.8832 192.282V189.51L68.0312 181.5L69.9572 182.814L65.4212 189.906L65.6372 190.266H73.7012V192.282H62.8832ZM69.7592 195V185.586H72.1172V195H69.7592ZM81.332 195V183.444L82.124 184.056H78.65V181.86H83.87V195H81.332ZM86.8184 195V192.48C86.8184 191.928 86.9024 191.448 87.0704 191.04C87.2504 190.632 87.5384 190.272 87.9344 189.96C88.3424 189.636 88.8764 189.33 89.5364 189.042L91.7684 188.052C92.3204 187.8 92.7404 187.494 93.0284 187.134C93.3284 186.762 93.4784 186.288 93.4784 185.712C93.4784 185.076 93.2864 184.572 92.9024 184.2C92.5304 183.816 91.9964 183.624 91.3004 183.624C90.6044 183.624 90.0644 183.816 89.6804 184.2C89.3084 184.584 89.1224 185.118 89.1224 185.802H86.6564C86.6564 184.986 86.8304 184.254 87.1784 183.606C87.5264 182.946 88.0424 182.43 88.7264 182.058C89.4104 181.674 90.2684 181.482 91.3004 181.482C92.3324 181.482 93.1904 181.668 93.8744 182.04C94.5584 182.412 95.0744 182.91 95.4224 183.534C95.7704 184.146 95.9444 184.83 95.9444 185.586V185.82C95.9444 186.804 95.6684 187.626 95.1164 188.286C94.5644 188.934 93.7544 189.498 92.6864 189.978L90.4544 190.968C90.0344 191.148 89.7404 191.34 89.5724 191.544C89.4044 191.736 89.3204 192 89.3204 192.336V193.488L88.7084 192.822H95.9984V195H86.8184ZM102.442 195.342C101.434 195.342 100.564 195.15 99.8316 194.766C99.1116 194.382 98.5596 193.872 98.1756 193.236C97.7916 192.588 97.5996 191.868 97.5996 191.076H100.066C100.066 191.712 100.276 192.228 100.696 192.624C101.128 193.008 101.71 193.2 102.442 193.2C102.934 193.2 103.354 193.11 103.702 192.93C104.062 192.738 104.338 192.48 104.53 192.156C104.722 191.82 104.818 191.436 104.818 191.004C104.818 190.356 104.608 189.828 104.188 189.42C103.768 189 103.192 188.79 102.46 188.79C102.1 188.79 101.782 188.838 101.506 188.934C101.242 189.03 101.008 189.156 100.804 189.312L99.6336 187.296L103.954 184.344L103.792 184.038H98.1396V181.86H106.726V184.488L102.28 187.44L100.894 187.188C101.122 187.116 101.368 187.062 101.632 187.026C101.896 186.978 102.184 186.954 102.496 186.954C103.492 186.954 104.344 187.128 105.052 187.476C105.772 187.812 106.324 188.28 106.708 188.88C107.092 189.48 107.284 190.17 107.284 190.95V191.184C107.284 191.94 107.092 192.636 106.708 193.272C106.324 193.896 105.772 194.4 105.052 194.784C104.332 195.156 103.462 195.342 102.442 195.342ZM108.885 192.282V189.51L114.033 181.5L115.959 182.814L111.423 189.906L111.639 190.266H119.703V192.282H108.885ZM115.761 195V185.586H118.119V195H115.761ZM127.334 195V183.444L128.126 184.056H124.652V181.86H129.872V195H127.334ZM132.82 195V192.48C132.82 191.928 132.904 191.448 133.072 191.04C133.252 190.632 133.54 190.272 133.936 189.96C134.344 189.636 134.878 189.33 135.538 189.042L137.77 188.052C138.322 187.8 138.742 187.494 139.03 187.134C139.33 186.762 139.48 186.288 139.48 185.712C139.48 185.076 139.288 184.572 138.904 184.2C138.532 183.816 137.998 183.624 137.302 183.624C136.606 183.624 136.066 183.816 135.682 184.2C135.31 184.584 135.124 185.118 135.124 185.802H132.658C132.658 184.986 132.832 184.254 133.18 183.606C133.528 182.946 134.044 182.43 134.728 182.058C135.412 181.674 136.27 181.482 137.302 181.482C138.334 181.482 139.192 181.668 139.876 182.04C140.56 182.412 141.076 182.91 141.424 183.534C141.772 184.146 141.946 184.83 141.946 185.586V185.82C141.946 186.804 141.67 187.626 141.118 188.286C140.566 188.934 139.756 189.498 138.688 189.978L136.456 190.968C136.036 191.148 135.742 191.34 135.574 191.544C135.406 191.736 135.322 192 135.322 192.336V193.488L134.71 192.822H142V195H132.82ZM148.444 195.342C147.436 195.342 146.566 195.15 145.834 194.766C145.114 194.382 144.562 193.872 144.178 193.236C143.794 192.588 143.602 191.868 143.602 191.076H146.068C146.068 191.712 146.278 192.228 146.698 192.624C147.13 193.008 147.712 193.2 148.444 193.2C148.936 193.2 149.356 193.11 149.704 192.93C150.064 192.738 150.34 192.48 150.532 192.156C150.724 191.82 150.82 191.436 150.82 191.004C150.82 190.356 150.61 189.828 150.19 189.42C149.77 189 149.194 188.79 148.462 188.79C148.102 188.79 147.784 188.838 147.508 188.934C147.244 189.03 147.01 189.156 146.806 189.312L145.636 187.296L149.956 184.344L149.794 184.038H144.142V181.86H152.728V184.488L148.282 187.44L146.896 187.188C147.124 187.116 147.37 187.062 147.634 187.026C147.898 186.978 148.186 186.954 148.498 186.954C149.494 186.954 150.346 187.128 151.054 187.476C151.774 187.812 152.326 188.28 152.71 188.88C153.094 189.48 153.286 190.17 153.286 190.95V191.184C153.286 191.94 153.094 192.636 152.71 193.272C152.326 193.896 151.774 194.4 151.054 194.784C150.334 195.156 149.464 195.342 148.444 195.342ZM154.887 192.282V189.51L160.035 181.5L161.961 182.814L157.425 189.906L157.641 190.266H165.705V192.282H154.887ZM161.763 195V185.586H164.121V195H161.763ZM173.336 195V183.444L174.128 184.056H170.654V181.86H175.874V195H173.336ZM178.822 195V192.48C178.822 191.928 178.906 191.448 179.074 191.04C179.254 190.632 179.542 190.272 179.938 189.96C180.346 189.636 180.88 189.33 181.54 189.042L183.772 188.052C184.324 187.8 184.744 187.494 185.032 187.134C185.332 186.762 185.482 186.288 185.482 185.712C185.482 185.076 185.29 184.572 184.906 184.2C184.534 183.816 184 183.624 183.304 183.624C182.608 183.624 182.068 183.816 181.684 184.2C181.312 184.584 181.126 185.118 181.126 185.802H178.66C178.66 184.986 178.834 184.254 179.182 183.606C179.53 182.946 180.046 182.43 180.73 182.058C181.414 181.674 182.272 181.482 183.304 181.482C184.336 181.482 185.194 181.668 185.878 182.04C186.562 182.412 187.078 182.91 187.426 183.534C187.774 184.146 187.948 184.83 187.948 185.586V185.82C187.948 186.804 187.672 187.626 187.12 188.286C186.568 188.934 185.758 189.498 184.69 189.978L182.458 190.968C182.038 191.148 181.744 191.34 181.576 191.544C181.408 191.736 181.324 192 181.324 192.336V193.488L180.712 192.822H188.002V195H178.822ZM194.446 195.342C193.438 195.342 192.568 195.15 191.836 194.766C191.116 194.382 190.564 193.872 190.18 193.236C189.796 192.588 189.604 191.868 189.604 191.076H192.07C192.07 191.712 192.28 192.228 192.7 192.624C193.132 193.008 193.714 193.2 194.446 193.2C194.938 193.2 195.358 193.11 195.706 192.93C196.066 192.738 196.342 192.48 196.534 192.156C196.726 191.82 196.822 191.436 196.822 191.004C196.822 190.356 196.612 189.828 196.192 189.42C195.772 189 195.196 188.79 194.464 188.79C194.104 188.79 193.786 188.838 193.51 188.934C193.246 189.03 193.012 189.156 192.808 189.312L191.638 187.296L195.958 184.344L195.796 184.038H190.144V181.86H198.73V184.488L194.284 187.44L192.898 187.188C193.126 187.116 193.372 187.062 193.636 187.026C193.9 186.978 194.188 186.954 194.5 186.954C195.496 186.954 196.348 187.128 197.056 187.476C197.776 187.812 198.328 188.28 198.712 188.88C199.096 189.48 199.288 190.17 199.288 190.95V191.184C199.288 191.94 199.096 192.636 198.712 193.272C198.328 193.896 197.776 194.4 197.056 194.784C196.336 195.156 195.466 195.342 194.446 195.342ZM200.889 192.282V189.51L206.037 181.5L207.963 182.814L203.427 189.906L203.643 190.266H211.707V192.282H200.889ZM207.765 195V185.586H210.123V195H207.765Z" fill="white"/>
<g opacity="0.7">
<path fill-rule="evenodd" clip-rule="evenodd" d="M40.7526 -9.1795C38.7868 -7.11355 37.3175 -3.86046 37.3175 0.810463C37.3175 9.43247 39.2069 17.6067 42.5925 24.9486C43.1988 26.2635 42.6244 27.8208 41.3096 28.4271C39.9947 29.0334 38.4374 28.459 37.8311 27.1442C34.1346 19.128 32.0742 10.206 32.0742 0.810463C32.0742 -5.00495 33.9309 -9.61661 36.9542 -12.7938C39.9622 -15.9551 43.9836 -17.5407 48 -17.5407C52.0164 -17.5407 56.0378 -15.9551 59.0458 -12.7938C62.069 -9.61661 63.9257 -5.00495 63.9257 0.810463C63.9257 15.736 58.7272 29.4558 50.0427 40.252C49.1352 41.3801 47.485 41.559 46.3568 40.6515C45.2286 39.744 45.0497 38.0937 45.9572 36.9656C53.9201 27.0665 58.6825 14.4973 58.6825 0.810463C58.6825 -3.86046 57.2132 -7.11355 55.2474 -9.1795C53.2663 -11.2614 50.6356 -12.2974 48 -12.2974C45.3643 -12.2974 42.7336 -11.2614 40.7526 -9.1795ZM-12.7862 36.8832C-9.60529 33.8642 -4.98944 32.0108 0.830753 32.0108C15.7728 32.0108 29.5084 37.2018 40.3179 45.8749C41.4472 46.781 41.6281 48.431 40.722 49.5603C39.8159 50.6896 38.1658 50.8706 37.0366 49.9645C27.1245 42.0114 14.5377 37.2541 0.830753 37.2541C-3.84875 37.2541 -7.10767 38.7225 -9.17665 40.6862C-11.2612 42.6647 -12.2972 45.2905 -12.2972 47.9197C-12.2972 50.5489 -11.2612 53.1747 -9.17665 55.1531C-7.10767 57.1168 -3.84875 58.5853 0.830753 58.5853C9.25047 58.5853 17.428 56.6939 24.9498 53.229C26.2649 52.6233 27.822 53.1983 28.4278 54.5133C29.0336 55.8284 28.4586 57.3855 27.1435 57.9913C18.9662 61.7581 10.0427 63.8285 0.830753 63.8285C-4.98944 63.8285 -9.60529 61.9752 -12.7862 58.9561C-15.9515 55.9519 -17.5404 51.9341 -17.5404 47.9197C-17.5404 43.9053 -15.9515 39.8875 -12.7862 36.8832ZM68.5825 37.8628C76.6655 34.1066 85.6759 32.0108 95.1692 32.0108C100.989 32.0108 105.605 33.8642 108.786 36.8832C111.951 39.8875 113.54 43.9053 113.54 47.9197C113.54 51.9341 111.951 55.9519 108.786 58.9561C105.605 61.9752 100.989 63.8285 95.1692 63.8285C80.2272 63.8285 66.4916 58.6376 55.6821 49.9645C54.5528 49.0583 54.3719 47.4083 55.278 46.279C56.1841 45.1497 57.8341 44.9688 58.9634 45.8749C68.8755 53.828 81.4623 58.5853 95.1692 58.5853C99.8487 58.5853 103.108 57.1168 105.177 55.1531C107.261 53.1747 108.297 50.5489 108.297 47.9197C108.297 45.2905 107.261 42.6647 105.177 40.6862C103.108 38.7225 99.8487 37.2541 95.1692 37.2541C86.4546 37.2541 78.1969 39.1767 70.7921 42.6177C69.479 43.2279 67.92 42.6581 67.3098 41.345C66.6996 40.032 67.2694 38.473 68.5825 37.8628ZM49.6432 55.1879C50.7713 56.0954 50.9502 57.7456 50.0427 58.8738C42.0798 68.7728 37.3175 81.342 37.3175 95.0289C37.3175 99.7607 38.7917 103.057 40.7617 105.149C42.7451 107.254 45.3732 108.297 48 108.297C50.6268 108.297 53.2548 107.254 55.2382 105.149C57.2083 103.057 58.6825 99.7607 58.6825 95.0289C58.6825 86.3836 56.7828 78.1885 53.38 70.8311C52.7722 69.517 53.3448 67.959 54.6589 67.3512C55.973 66.7434 57.5311 67.316 58.1389 68.6301C61.8542 76.6631 63.9257 85.6079 63.9257 95.0289C63.9257 100.89 62.0739 105.539 59.0549 108.744C56.0493 111.935 52.0252 113.54 48 113.54C43.9747 113.54 39.9507 111.935 36.9451 108.744C33.926 105.539 32.0742 100.89 32.0742 95.0289C32.0742 80.1033 37.2727 66.3836 45.9572 55.5874C46.8648 54.4592 48.515 54.2804 49.6432 55.1879Z" fill="url(#paint1_linear)"/>
<path fill-rule="evenodd" clip-rule="evenodd" d="M-35.8919 40.135C-40.2356 40.135 -43.7568 43.6562 -43.7568 47.9999C-43.7568 52.3435 -40.2356 55.8647 -35.8919 55.8647C-31.5483 55.8647 -28.0271 52.3435 -28.0271 47.9999C-28.0271 43.6562 -31.5483 40.135 -35.8919 40.135ZM-49 47.9999C-49 40.7605 -43.1313 34.8918 -35.8919 34.8918C-28.6525 34.8918 -22.7838 40.7605 -22.7838 47.9999C-22.7838 55.2393 -28.6525 61.1079 -35.8919 61.1079C-43.1313 61.1079 -49 55.2393 -49 47.9999Z" fill="url(#paint2_linear)"/>
<path fill-rule="evenodd" clip-rule="evenodd" d="M47.9997 124.027C43.6561 124.027 40.1349 127.548 40.1349 131.891C40.1349 136.235 43.6561 139.756 47.9997 139.756C52.3433 139.756 55.8645 136.235 55.8645 131.891C55.8645 127.548 52.3433 124.027 47.9997 124.027ZM34.8916 131.891C34.8916 124.652 40.7603 118.783 47.9997 118.783C55.2391 118.783 61.1078 124.652 61.1078 131.891C61.1078 139.131 55.2391 144.999 47.9997 144.999C40.7603 144.999 34.8916 139.131 34.8916 131.891Z" fill="url(#paint3_linear)"/>
<path fill-rule="evenodd" clip-rule="evenodd" d="M47.9997 -43.7568C43.6561 -43.7568 40.1349 -40.2356 40.1349 -35.8919C40.1349 -31.5483 43.6561 -28.0271 47.9997 -28.0271C52.3433 -28.0271 55.8645 -31.5483 55.8645 -35.8919C55.8645 -40.2356 52.3433 -43.7568 47.9997 -43.7568ZM34.8916 -35.8919C34.8916 -43.1313 40.7603 -49 47.9997 -49C55.2391 -49 61.1078 -43.1313 61.1078 -35.8919C61.1078 -28.6525 55.2391 -22.7838 47.9997 -22.7838C40.7603 -22.7838 34.8916 -28.6525 34.8916 -35.8919Z" fill="url(#paint4_linear)"/>
<path fill-rule="evenodd" clip-rule="evenodd" d="M131.891 40.135C127.548 40.135 124.026 43.6562 124.026 47.9999C124.026 52.3435 127.548 55.8647 131.891 55.8647C136.235 55.8647 139.756 52.3435 139.756 47.9999C139.756 43.6562 136.235 40.135 131.891 40.135ZM118.783 47.9999C118.783 40.7605 124.652 34.8918 131.891 34.8918C139.131 34.8918 144.999 40.7605 144.999 47.9999C144.999 55.2393 139.131 61.1079 131.891 61.1079C124.652 61.1079 118.783 55.2393 118.783 47.9999Z" fill="url(#paint5_linear)"/>
</g>
<path fill-rule="evenodd" clip-rule="evenodd" d="M33.6774 89C32.751 89 32 89.751 32 90.6774V98.6452H49.1952C49.5262 97.7691 50.0421 96.9579 50.7271 96.2729L58 89L63.5 94.5H62.3139L58 90.1861L51.3202 96.8659C49.8125 98.3736 49.2408 100.58 49.8265 102.63L49.8927 102.862C50.2799 104.217 50.2799 105.654 49.8927 107.009L49.8265 107.241C49.2408 109.291 49.8125 111.497 51.3202 113.005L58 119.685L64.6798 113.005C66.1875 111.497 66.7592 109.291 66.1735 107.241L66.1073 107.009C65.7201 105.654 65.7201 104.217 66.1073 102.862L66.1735 102.63C66.5567 101.289 66.4445 99.8808 65.8989 98.6452L66.8048 98.6452L66.8064 98.6495V98.6452L84 98.6452V90.6774C84 89.751 83.249 89 82.3226 89H58H33.6774ZM84 99.4839L67.0605 99.4839C67.3176 100.579 67.3 101.74 66.9799 102.861L66.9137 103.092C66.5695 104.297 66.5695 105.574 66.9137 106.779L66.9799 107.01C67.3 108.131 67.3176 109.292 67.0605 110.387H84V99.4839ZM84 111.226L66.8064 111.226V111.221C66.4755 112.099 65.959 112.912 65.2729 113.598L58 120.871L50.7271 113.598C50.0421 112.913 49.5262 112.102 49.1952 111.226L32 111.226V119.194C32 120.12 32.751 120.871 33.6774 120.871L58 120.871L82.3226 120.871C83.249 120.871 84 120.12 84 119.194V111.226ZM32 110.387L48.9395 110.387C48.6824 109.292 48.7 108.131 49.0201 107.01L49.0862 106.779C49.4305 105.574 49.4305 104.297 49.0862 103.092L49.0201 102.861C48.7 101.74 48.6824 100.579 48.9395 99.4839H32V110.387Z" fill="url(#paint6_linear)"/>
</g>
<defs>
<linearGradient id="paint0_linear" x1="418" y1="1.93259e-05" x2="0.200783" y2="269.311" gradientUnits="userSpaceOnUse">
<stop stop-color="#7FCAF5"/>
<stop offset="1" stop-color="#6CF598"/>
</linearGradient>
<linearGradient id="paint1_linear" x1="-49" y1="-49" x2="145" y2="145" gradientUnits="userSpaceOnUse">
<stop offset="0.130208" stop-color="white" stop-opacity="0"/>
<stop offset="1" stop-color="white"/>
</linearGradient>
<linearGradient id="paint2_linear" x1="-49" y1="-49" x2="145" y2="145" gradientUnits="userSpaceOnUse">
<stop offset="0.130208" stop-color="white" stop-opacity="0"/>
<stop offset="1" stop-color="white"/>
</linearGradient>
<linearGradient id="paint3_linear" x1="-49" y1="-49" x2="145" y2="145" gradientUnits="userSpaceOnUse">
<stop offset="0.130208" stop-color="white" stop-opacity="0"/>
<stop offset="1" stop-color="white"/>
</linearGradient>
<linearGradient id="paint4_linear" x1="-49" y1="-49" x2="145" y2="145" gradientUnits="userSpaceOnUse">
<stop offset="0.130208" stop-color="white" stop-opacity="0"/>
<stop offset="1" stop-color="white"/>
</linearGradient>
<linearGradient id="paint5_linear" x1="-49" y1="-49" x2="145" y2="145" gradientUnits="userSpaceOnUse">
<stop offset="0.130208" stop-color="white" stop-opacity="0"/>
<stop offset="1" stop-color="white"/>
</linearGradient>
<linearGradient id="paint6_linear" x1="84.8387" y1="89" x2="32" y2="120.871" gradientUnits="userSpaceOnUse">
<stop stop-color="white"/>
<stop offset="1" stop-color="#D5FFE8"/>
</linearGradient>
<clipPath id="clip0">
<rect width="418" height="269" fill="white"/>
</clipPath>
</defs>
</svg>
