<svg width="1319" height="49" viewBox="0 0 1319 49" fill="none" xmlns="http://www.w3.org/2000/svg">
<path d="M424.088 49H424.859L425.429 48.5203L452.371 25.8693L454 24.5L452.371 23.1307L425.429 0.479719L424.859 0H424.088H1.99571H0V1.84906V47.1509V49H1.99571H424.088Z" fill="#7FCAF5"/>
<path d="M856.55 49H857.314L857.88 48.5203L884.6 25.8693L886.215 24.5L884.6 23.1307L857.88 0.479719L857.314 0H856.55H432.269L461.196 24.5L432.215 49H856.55Z" fill="#7FCAF5"/>
<path d="M1289.34 49H1290.1L1290.67 48.5203L1317.38 25.8693L1319 24.5L1317.38 23.1307L1290.67 0.479719L1290.1 0H1289.34H865.054L893.981 24.5L865 49H1289.34Z" fill="#7FCAF5"/>
</svg>
