<svg width="418" height="269" viewBox="0 0 418 269" fill="none" xmlns="http://www.w3.org/2000/svg">
<mask id="mask0" mask-type="alpha" maskUnits="userSpaceOnUse" x="0" y="0" width="418" height="269">
<rect width="418" height="269" rx="16" fill="url(#paint0_linear)"/>
</mask>
<g mask="url(#mask0)">
<rect width="418" height="269" rx="16" fill="url(#paint1_linear)"/>
<path fill-rule="evenodd" clip-rule="evenodd" d="M33.6774 89C32.751 89 32 89.751 32 90.6774V98.6452H49.1952C49.5262 97.7691 50.0421 96.9579 50.7271 96.2729L58 89L63.5 94.5H62.3139L58 90.1861L51.3202 96.8659C49.8125 98.3736 49.2408 100.58 49.8265 102.63L49.8927 102.862C50.2799 104.217 50.2799 105.654 49.8927 107.009L49.8265 107.241C49.2408 109.291 49.8125 111.497 51.3202 113.005L58 119.685L64.6798 113.005C66.1875 111.497 66.7592 109.291 66.1735 107.241L66.1073 107.009C65.7201 105.654 65.7201 104.217 66.1073 102.862L66.1735 102.63C66.5567 101.289 66.4445 99.8808 65.8989 98.6452L66.8048 98.6452L66.8064 98.6495V98.6452L84 98.6452V90.6774C84 89.751 83.249 89 82.3226 89H58H33.6774ZM84 99.4839L67.0605 99.4839C67.3176 100.579 67.3 101.74 66.9799 102.861L66.9137 103.092C66.5695 104.297 66.5695 105.574 66.9137 106.779L66.9799 107.01C67.3 108.131 67.3176 109.292 67.0605 110.387H84V99.4839ZM84 111.226L66.8064 111.226V111.221C66.4755 112.099 65.959 112.912 65.2729 113.598L58 120.871L50.7271 113.598C50.0421 112.913 49.5262 112.102 49.1952 111.226L32 111.226V119.194C32 120.12 32.751 120.871 33.6774 120.871L58 120.871L82.3226 120.871C83.249 120.871 84 120.12 84 119.194V111.226ZM32 110.387L48.9395 110.387C48.6824 109.292 48.7 108.131 49.0201 107.01L49.0862 106.779C49.4305 105.574 49.4305 104.297 49.0862 103.092L49.0201 102.861C48.7 101.74 48.6824 100.579 48.9395 99.4839H32V110.387Z" fill="url(#paint2_linear)"/>
<g opacity="0.7">
<path fill-rule="evenodd" clip-rule="evenodd" d="M40.7526 -9.1795C38.7868 -7.11355 37.3175 -3.86046 37.3175 0.810463C37.3175 9.43247 39.2069 17.6067 42.5925 24.9486C43.1988 26.2635 42.6244 27.8208 41.3096 28.4271C39.9947 29.0334 38.4374 28.459 37.8311 27.1442C34.1346 19.128 32.0742 10.206 32.0742 0.810463C32.0742 -5.00495 33.9309 -9.61661 36.9542 -12.7938C39.9622 -15.9551 43.9836 -17.5407 48 -17.5407C52.0164 -17.5407 56.0378 -15.9551 59.0458 -12.7938C62.069 -9.61661 63.9257 -5.00495 63.9257 0.810463C63.9257 15.736 58.7272 29.4558 50.0427 40.252C49.1352 41.3801 47.485 41.559 46.3568 40.6515C45.2286 39.744 45.0497 38.0937 45.9572 36.9656C53.9201 27.0665 58.6825 14.4973 58.6825 0.810463C58.6825 -3.86046 57.2132 -7.11355 55.2474 -9.1795C53.2663 -11.2614 50.6356 -12.2974 48 -12.2974C45.3643 -12.2974 42.7336 -11.2614 40.7526 -9.1795ZM-12.7862 36.8832C-9.60529 33.8642 -4.98944 32.0108 0.830753 32.0108C15.7728 32.0108 29.5084 37.2018 40.3179 45.8749C41.4472 46.781 41.6281 48.431 40.722 49.5603C39.8159 50.6896 38.1658 50.8706 37.0366 49.9645C27.1245 42.0114 14.5377 37.2541 0.830753 37.2541C-3.84875 37.2541 -7.10767 38.7225 -9.17665 40.6862C-11.2612 42.6647 -12.2972 45.2905 -12.2972 47.9197C-12.2972 50.5489 -11.2612 53.1747 -9.17665 55.1531C-7.10767 57.1168 -3.84875 58.5853 0.830753 58.5853C9.25047 58.5853 17.428 56.6939 24.9498 53.229C26.2649 52.6233 27.822 53.1983 28.4278 54.5133C29.0336 55.8284 28.4586 57.3855 27.1435 57.9913C18.9662 61.7581 10.0427 63.8285 0.830753 63.8285C-4.98944 63.8285 -9.60529 61.9752 -12.7862 58.9561C-15.9515 55.9519 -17.5404 51.9341 -17.5404 47.9197C-17.5404 43.9053 -15.9515 39.8875 -12.7862 36.8832ZM68.5825 37.8628C76.6655 34.1066 85.6759 32.0108 95.1692 32.0108C100.989 32.0108 105.605 33.8642 108.786 36.8832C111.951 39.8875 113.54 43.9053 113.54 47.9197C113.54 51.9341 111.951 55.9519 108.786 58.9561C105.605 61.9752 100.989 63.8285 95.1692 63.8285C80.2272 63.8285 66.4916 58.6376 55.6821 49.9645C54.5528 49.0583 54.3719 47.4083 55.278 46.279C56.1841 45.1497 57.8341 44.9688 58.9634 45.8749C68.8755 53.828 81.4623 58.5853 95.1692 58.5853C99.8487 58.5853 103.108 57.1168 105.177 55.1531C107.261 53.1747 108.297 50.5489 108.297 47.9197C108.297 45.2905 107.261 42.6647 105.177 40.6862C103.108 38.7225 99.8487 37.2541 95.1692 37.2541C86.4546 37.2541 78.1969 39.1767 70.7921 42.6177C69.479 43.2279 67.92 42.6581 67.3098 41.345C66.6996 40.032 67.2694 38.473 68.5825 37.8628ZM49.6432 55.1879C50.7713 56.0954 50.9502 57.7456 50.0427 58.8738C42.0798 68.7728 37.3175 81.342 37.3175 95.0289C37.3175 99.7607 38.7917 103.057 40.7617 105.149C42.7451 107.254 45.3732 108.297 48 108.297C50.6268 108.297 53.2548 107.254 55.2382 105.149C57.2083 103.057 58.6825 99.7607 58.6825 95.0289C58.6825 86.3836 56.7828 78.1885 53.38 70.8311C52.7722 69.517 53.3448 67.959 54.6589 67.3512C55.973 66.7434 57.5311 67.316 58.1389 68.6301C61.8542 76.6631 63.9257 85.6079 63.9257 95.0289C63.9257 100.89 62.0739 105.539 59.0549 108.744C56.0493 111.935 52.0252 113.54 48 113.54C43.9747 113.54 39.9507 111.935 36.9451 108.744C33.926 105.539 32.0742 100.89 32.0742 95.0289C32.0742 80.1033 37.2727 66.3836 45.9572 55.5874C46.8648 54.4592 48.515 54.2804 49.6432 55.1879Z" fill="url(#paint3_linear)"/>
<path fill-rule="evenodd" clip-rule="evenodd" d="M-35.8919 40.135C-40.2356 40.135 -43.7568 43.6562 -43.7568 47.9999C-43.7568 52.3435 -40.2356 55.8647 -35.8919 55.8647C-31.5483 55.8647 -28.0271 52.3435 -28.0271 47.9999C-28.0271 43.6562 -31.5483 40.135 -35.8919 40.135ZM-49 47.9999C-49 40.7605 -43.1313 34.8918 -35.8919 34.8918C-28.6525 34.8918 -22.7838 40.7605 -22.7838 47.9999C-22.7838 55.2393 -28.6525 61.1079 -35.8919 61.1079C-43.1313 61.1079 -49 55.2393 -49 47.9999Z" fill="url(#paint4_linear)"/>
<path fill-rule="evenodd" clip-rule="evenodd" d="M47.9997 124.027C43.6561 124.027 40.1349 127.548 40.1349 131.891C40.1349 136.235 43.6561 139.756 47.9997 139.756C52.3433 139.756 55.8645 136.235 55.8645 131.891C55.8645 127.548 52.3433 124.027 47.9997 124.027ZM34.8916 131.891C34.8916 124.652 40.7603 118.783 47.9997 118.783C55.2391 118.783 61.1078 124.652 61.1078 131.891C61.1078 139.131 55.2391 144.999 47.9997 144.999C40.7603 144.999 34.8916 139.131 34.8916 131.891Z" fill="url(#paint5_linear)"/>
<path fill-rule="evenodd" clip-rule="evenodd" d="M47.9997 -43.7568C43.6561 -43.7568 40.1349 -40.2356 40.1349 -35.8919C40.1349 -31.5483 43.6561 -28.0271 47.9997 -28.0271C52.3433 -28.0271 55.8645 -31.5483 55.8645 -35.8919C55.8645 -40.2356 52.3433 -43.7568 47.9997 -43.7568ZM34.8916 -35.8919C34.8916 -43.1313 40.7603 -49 47.9997 -49C55.2391 -49 61.1078 -43.1313 61.1078 -35.8919C61.1078 -28.6525 55.2391 -22.7838 47.9997 -22.7838C40.7603 -22.7838 34.8916 -28.6525 34.8916 -35.8919Z" fill="url(#paint6_linear)"/>
<path fill-rule="evenodd" clip-rule="evenodd" d="M131.891 40.135C127.548 40.135 124.026 43.6562 124.026 47.9999C124.026 52.3435 127.548 55.8647 131.891 55.8647C136.235 55.8647 139.756 52.3435 139.756 47.9999C139.756 43.6562 136.235 40.135 131.891 40.135ZM118.783 47.9999C118.783 40.7605 124.652 34.8918 131.891 34.8918C139.131 34.8918 144.999 40.7605 144.999 47.9999C144.999 55.2393 139.131 61.1079 131.891 61.1079C124.652 61.1079 118.783 55.2393 118.783 47.9999Z" fill="url(#paint7_linear)"/>
</g>
</g>
<defs>
<linearGradient id="paint0_linear" x1="418" y1="1.93259e-05" x2="0.200783" y2="269.311" gradientUnits="userSpaceOnUse">
<stop stop-color="#7FCAF5"/>
<stop offset="1" stop-color="#6CF598"/>
</linearGradient>
<linearGradient id="paint1_linear" x1="418" y1="1.93259e-05" x2="0.200783" y2="269.311" gradientUnits="userSpaceOnUse">
<stop stop-color="#7FCAF5"/>
<stop offset="1" stop-color="#6CF598"/>
</linearGradient>
<linearGradient id="paint2_linear" x1="84.8387" y1="89" x2="32" y2="120.871" gradientUnits="userSpaceOnUse">
<stop stop-color="white"/>
<stop offset="1" stop-color="#D5FFE8"/>
</linearGradient>
<linearGradient id="paint3_linear" x1="-49" y1="-49" x2="145" y2="145" gradientUnits="userSpaceOnUse">
<stop offset="0.130208" stop-color="white" stop-opacity="0"/>
<stop offset="1" stop-color="white"/>
</linearGradient>
<linearGradient id="paint4_linear" x1="-49" y1="-49" x2="145" y2="145" gradientUnits="userSpaceOnUse">
<stop offset="0.130208" stop-color="white" stop-opacity="0"/>
<stop offset="1" stop-color="white"/>
</linearGradient>
<linearGradient id="paint5_linear" x1="-49" y1="-49" x2="145" y2="145" gradientUnits="userSpaceOnUse">
<stop offset="0.130208" stop-color="white" stop-opacity="0"/>
<stop offset="1" stop-color="white"/>
</linearGradient>
<linearGradient id="paint6_linear" x1="-49" y1="-49" x2="145" y2="145" gradientUnits="userSpaceOnUse">
<stop offset="0.130208" stop-color="white" stop-opacity="0"/>
<stop offset="1" stop-color="white"/>
</linearGradient>
<linearGradient id="paint7_linear" x1="-49" y1="-49" x2="145" y2="145" gradientUnits="userSpaceOnUse">
<stop offset="0.130208" stop-color="white" stop-opacity="0"/>
<stop offset="1" stop-color="white"/>
</linearGradient>
</defs>
</svg>
