<svg width="80" height="80" viewBox="0 0 80 80" fill="none" xmlns="http://www.w3.org/2000/svg">
<path fill-rule="evenodd" clip-rule="evenodd" d="M37.0112 16.4208C36.2005 17.2728 35.5946 18.6143 35.5946 20.5404C35.5946 24.0959 36.3738 27.4667 37.7699 30.4943C38.0199 31.0365 37.783 31.6787 37.2408 31.9287C36.6986 32.1788 36.0564 31.9419 35.8064 31.3997C34.2821 28.094 33.4325 24.4149 33.4325 20.5404C33.4325 18.1423 34.1981 16.2406 35.4448 14.9304C36.6852 13.6268 38.3435 12.9729 39.9998 12.9729C41.656 12.9729 43.3143 13.6268 44.5548 14.9304C45.8015 16.2406 46.5671 18.1423 46.5671 20.5404C46.5671 26.6953 44.4234 32.3529 40.8421 36.805C40.4679 37.2702 39.7874 37.344 39.3222 36.9697C38.8569 36.5955 38.7832 35.915 39.1574 35.4498C42.4411 31.3677 44.4049 26.1845 44.4049 20.5404C44.4049 18.6143 43.799 17.2728 42.9884 16.4208C42.1715 15.5623 41.0866 15.1351 39.9998 15.1351C38.9129 15.1351 37.8281 15.5623 37.0112 16.4208ZM14.9333 35.4158C16.245 34.1708 18.1484 33.4066 20.5485 33.4066C26.7102 33.4066 32.3744 35.5472 36.8319 39.1237C37.2976 39.4974 37.3722 40.1778 36.9985 40.6435C36.6249 41.1092 35.9445 41.1838 35.4788 40.8101C31.3913 37.5305 26.2009 35.5687 20.5485 35.5687C18.6188 35.5687 17.2749 36.1743 16.4218 36.9841C15.5622 37.7999 15.1349 38.8827 15.1349 39.9669C15.1349 41.0511 15.5622 42.1339 16.4218 42.9498C17.2749 43.7596 18.6188 44.3651 20.5485 44.3651C24.0206 44.3651 27.3928 43.5851 30.4945 42.1564C31.0368 41.9065 31.679 42.1437 31.9288 42.686C32.1786 43.2283 31.9415 43.8704 31.3992 44.1202C28.0271 45.6735 24.3473 46.5273 20.5485 46.5273C18.1484 46.5273 16.245 45.763 14.9333 44.518C13.628 43.2792 12.9728 41.6224 12.9728 39.9669C12.9728 38.3115 13.628 36.6547 14.9333 35.4158ZM48.4874 35.8197C51.8206 34.2708 55.5363 33.4066 59.451 33.4066C61.8511 33.4066 63.7546 34.1708 65.0663 35.4158C66.3716 36.6547 67.0268 38.3115 67.0268 39.9669C67.0268 41.6224 66.3716 43.2792 65.0663 44.518C63.7546 45.763 61.8511 46.5273 59.451 46.5273C53.2894 46.5273 47.6252 44.3867 43.1677 40.8101C42.702 40.4365 42.6274 39.7561 43.001 39.2904C43.3747 38.8247 44.0551 38.7501 44.5208 39.1237C48.6083 42.4033 53.7987 44.3651 59.451 44.3651C61.3807 44.3651 62.7246 43.7596 63.5778 42.9498C64.4374 42.1339 64.8646 41.0511 64.8646 39.9669C64.8646 38.8827 64.4374 37.7999 63.5778 36.9841C62.7246 36.1743 61.3807 35.5687 59.451 35.5687C55.8574 35.5687 52.4521 36.3615 49.3986 37.7805C48.8571 38.0321 48.2142 37.7972 47.9626 37.2557C47.711 36.7143 47.946 36.0714 48.4874 35.8197ZM40.6774 42.9641C41.1426 43.3384 41.2164 44.0189 40.8421 44.4841C37.5585 48.5662 35.5946 53.7493 35.5946 59.3934C35.5946 61.3447 36.2025 62.704 37.0149 63.5665C37.8328 64.4348 38.9166 64.8648 39.9998 64.8648C41.083 64.8648 42.1667 64.4348 42.9846 63.5665C43.797 62.704 44.4049 61.3447 44.4049 59.3934C44.4049 55.8283 43.6216 52.4489 42.2183 49.415C41.9677 48.8731 42.2038 48.2306 42.7457 47.9799C43.2876 47.7293 43.9301 47.9654 44.1808 48.5073C45.7129 51.8199 46.5671 55.5085 46.5671 59.3934C46.5671 61.8104 45.8035 63.7273 44.5585 65.049C43.3191 66.3648 41.6597 67.0269 39.9998 67.0269C38.3399 67.0269 36.6805 66.3648 35.441 65.049C34.1961 63.7273 33.4325 61.8104 33.4325 59.3934C33.4325 53.2385 35.5762 47.5809 39.1574 43.1289C39.5316 42.6637 40.2122 42.5899 40.6774 42.9641Z" fill="#7FCAF5"/>
<path fill-rule="evenodd" clip-rule="evenodd" d="M5.4054 36.7567C3.61421 36.7567 2.16216 38.2088 2.16216 40C2.16216 41.7912 3.61421 43.2432 5.4054 43.2432C7.19659 43.2432 8.64864 41.7912 8.64864 40C8.64864 38.2088 7.19659 36.7567 5.4054 36.7567ZM0 40C0 37.0147 2.42008 34.5946 5.4054 34.5946C8.39072 34.5946 10.8108 37.0147 10.8108 40C10.8108 42.9853 8.39072 45.4054 5.4054 45.4054C2.42008 45.4054 0 42.9853 0 40Z" fill="#7FCAF5"/>
<path fill-rule="evenodd" clip-rule="evenodd" d="M39.9999 71.3512C38.2087 71.3512 36.7566 72.8033 36.7566 74.5945C36.7566 76.3857 38.2087 77.8377 39.9999 77.8377C41.7911 77.8377 43.2431 76.3857 43.2431 74.5945C43.2431 72.8033 41.7911 71.3512 39.9999 71.3512ZM34.5945 74.5945C34.5945 71.6092 37.0146 69.1891 39.9999 69.1891C42.9852 69.1891 45.4053 71.6092 45.4053 74.5945C45.4053 77.5798 42.9852 79.9999 39.9999 79.9999C37.0146 79.9999 34.5945 77.5798 34.5945 74.5945Z" fill="#7FCAF5"/>
<path fill-rule="evenodd" clip-rule="evenodd" d="M39.9999 2.16216C38.2087 2.16216 36.7566 3.61421 36.7566 5.4054C36.7566 7.19659 38.2087 8.64864 39.9999 8.64864C41.7911 8.64864 43.2431 7.19659 43.2431 5.4054C43.2431 3.61421 41.7911 2.16216 39.9999 2.16216ZM34.5945 5.4054C34.5945 2.42008 37.0146 0 39.9999 0C42.9852 0 45.4053 2.42008 45.4053 5.4054C45.4053 8.39072 42.9852 10.8108 39.9999 10.8108C37.0146 10.8108 34.5945 8.39072 34.5945 5.4054Z" fill="#7FCAF5"/>
<path fill-rule="evenodd" clip-rule="evenodd" d="M74.5946 36.7567C72.8034 36.7567 71.3514 38.2088 71.3514 40C71.3514 41.7912 72.8034 43.2432 74.5946 43.2432C76.3858 43.2432 77.8379 41.7912 77.8379 40C77.8379 38.2088 76.3858 36.7567 74.5946 36.7567ZM69.1892 40C69.1892 37.0147 71.6093 34.5946 74.5946 34.5946C77.5799 34.5946 80 37.0147 80 40C80 42.9853 77.5799 45.4054 74.5946 45.4054C71.6093 45.4054 69.1892 42.9853 69.1892 40Z" fill="#7FCAF5"/>
</svg>
