<svg width="447" height="447" viewBox="0 0 447 447" fill="none" xmlns="http://www.w3.org/2000/svg">
<g clip-path="url(#clip0)">
<path fill-rule="evenodd" clip-rule="evenodd" d="M240.197 355.252C244.727 350.491 248.112 342.996 248.112 332.234C248.112 312.367 243.759 293.533 235.958 276.616C234.561 273.587 235.884 269.998 238.914 268.601C241.943 267.204 245.532 268.528 246.929 271.557C255.446 290.028 260.193 310.585 260.193 332.234C260.193 345.633 255.915 356.259 248.949 363.58C242.018 370.863 232.753 374.517 223.498 374.517C214.244 374.517 204.978 370.863 198.047 363.58C191.081 356.259 186.803 345.633 186.803 332.234C186.803 297.843 198.781 266.231 218.791 241.355C220.883 238.756 224.685 238.344 227.284 240.435C229.884 242.526 230.296 246.328 228.205 248.928C209.858 271.736 198.884 300.697 198.884 332.234C198.884 342.996 202.27 350.491 206.799 355.252C211.364 360.049 217.425 362.436 223.498 362.436C229.571 362.436 235.633 360.049 240.197 355.252ZM363.557 249.117C356.228 256.074 345.592 260.344 332.182 260.344C297.754 260.344 266.105 248.383 241.199 228.399C238.597 226.312 238.18 222.51 240.268 219.908C242.355 217.306 246.157 216.889 248.759 218.977C271.598 237.301 300.6 248.263 332.182 248.263C342.964 248.263 350.473 244.879 355.24 240.355C360.043 235.796 362.43 229.746 362.43 223.688C362.43 217.63 360.043 211.58 355.24 207.021C350.473 202.497 342.964 199.113 332.182 199.113C312.782 199.113 293.94 203.471 276.609 211.455C273.579 212.85 269.991 211.525 268.595 208.495C267.199 205.465 268.524 201.877 271.554 200.482C290.396 191.803 310.957 187.032 332.182 187.032C345.592 187.032 356.228 191.302 363.557 198.259C370.85 205.181 374.511 214.438 374.511 223.688C374.511 232.938 370.85 242.195 363.557 249.117ZM176.074 246.86C157.449 255.515 136.688 260.344 114.814 260.344C101.404 260.344 90.7684 256.074 83.4393 249.117C76.146 242.195 72.4849 232.938 72.4849 223.688C72.4849 214.438 76.146 205.181 83.4393 198.259C90.7684 191.302 101.404 187.032 114.814 187.032C149.243 187.032 180.891 198.993 205.798 218.977C208.4 221.064 208.817 224.866 206.729 227.468C204.641 230.07 200.839 230.487 198.237 228.399C175.398 210.074 146.397 199.113 114.814 199.113C104.032 199.113 96.5233 202.497 91.7561 207.021C86.9531 211.58 84.566 217.63 84.566 223.688C84.566 229.746 86.9531 235.796 91.7561 240.355C96.5233 244.879 104.032 248.263 114.814 248.263C134.894 248.263 153.921 243.833 170.982 235.904C174.008 234.499 177.6 235.811 179.006 238.837C180.412 241.862 179.099 245.454 176.074 246.86ZM219.712 206.941C217.113 204.85 216.7 201.048 218.791 198.448C237.139 175.64 248.112 146.679 248.112 115.142C248.112 104.24 244.715 96.6444 240.176 91.8255C235.606 86.9738 229.551 84.5713 223.498 84.5713C217.446 84.5713 211.39 86.9738 206.82 91.8255C202.281 96.6444 198.884 104.24 198.884 115.142C198.884 135.062 203.261 153.945 211.102 170.897C212.502 173.925 211.183 177.515 208.155 178.915C205.127 180.316 201.537 178.996 200.137 175.969C191.576 157.459 186.803 136.849 186.803 115.142C186.803 101.637 191.07 90.9269 198.026 83.5419C204.952 76.1898 214.223 72.4903 223.498 72.4903C232.773 72.4903 242.045 76.1898 248.97 83.5419C255.926 90.9269 260.193 101.637 260.193 115.142C260.193 149.533 248.215 181.145 228.205 206.021C226.114 208.62 222.312 209.032 219.712 206.941Z" fill="white"/>
<path fill-rule="evenodd" clip-rule="evenodd" d="M30.2028 205.378C20.1945 205.378 12.0812 213.491 12.0812 223.5C12.0812 233.508 20.1945 241.621 30.2028 241.621C40.2111 241.621 48.3244 233.508 48.3244 223.5C48.3244 213.491 40.2111 205.378 30.2028 205.378ZM0.00012207 223.5C0.00012207 206.819 13.5223 193.297 30.2028 193.297C46.8832 193.297 60.4054 206.819 60.4054 223.5C60.4054 240.18 46.8832 253.702 30.2028 253.702C13.5223 253.702 0.00012207 240.18 0.00012207 223.5Z" fill="white"/>
<path fill-rule="evenodd" clip-rule="evenodd" d="M223.499 398.675C213.491 398.675 205.378 406.788 205.378 416.796C205.378 426.805 213.491 434.918 223.499 434.918C233.508 434.918 241.621 426.805 241.621 416.796C241.621 406.788 233.508 398.675 223.499 398.675ZM193.297 416.796C193.297 400.116 206.819 386.594 223.499 386.594C240.18 386.594 253.702 400.116 253.702 416.796C253.702 433.477 240.18 446.999 223.499 446.999C206.819 446.999 193.297 433.477 193.297 416.796Z" fill="white"/>
<path fill-rule="evenodd" clip-rule="evenodd" d="M223.499 12.0813C213.491 12.0813 205.378 20.1946 205.378 30.2029C205.378 40.2112 213.491 48.3245 223.499 48.3245C233.508 48.3245 241.621 40.2112 241.621 30.2029C241.621 20.1946 233.508 12.0813 223.499 12.0813ZM193.297 30.2029C193.297 13.5224 206.819 0.000244141 223.499 0.000244141C240.18 0.000244141 253.702 13.5224 253.702 30.2029C253.702 46.8834 240.18 60.4056 223.499 60.4056C206.819 60.4056 193.297 46.8834 193.297 30.2029Z" fill="white"/>
<path fill-rule="evenodd" clip-rule="evenodd" d="M416.797 205.378C406.789 205.378 398.676 213.491 398.676 223.5C398.676 233.508 406.789 241.621 416.797 241.621C426.806 241.621 434.919 233.508 434.919 223.5C434.919 213.491 426.806 205.378 416.797 205.378ZM386.595 223.5C386.595 206.819 400.117 193.297 416.797 193.297C433.478 193.297 447 206.819 447 223.5C447 240.18 433.478 253.702 416.797 253.702C400.117 253.702 386.595 240.18 386.595 223.5Z" fill="white"/>
</g>
<defs>
<clipPath id="clip0">
<rect width="447" height="447" fill="white" transform="translate(0 0.000244141)"/>
</clipPath>
</defs>
</svg>
