<svg width="188" height="170" viewBox="0 0 188 170" fill="none" xmlns="http://www.w3.org/2000/svg">
<path d="M4.74646 121.931C6.77486 120.939 8.53281 120.443 10.0203 120.443C11.5078 120.443 12.6708 120.657 13.5092 121.086L9.8986 132.752C9.73633 134.415 9.50645 137.204 9.20895 141.12C8.91145 145.035 8.69509 147.878 8.55986 149.648C7.42395 150.426 5.82828 150.681 3.77283 150.413C1.71738 150.118 0.459771 149.501 0 148.562C1.75795 143.225 3.31306 136.762 4.66533 129.172L4.74646 121.931Z" fill="#7FCAF5"/>
<path d="M45.5329 120.443C47.1826 120.443 48.3186 120.845 48.9406 121.649L45.4923 132.913C44.8162 141.2 44.3835 146.779 44.1941 149.648C43.0582 150.426 41.4626 150.681 39.4071 150.413C37.3787 150.118 36.1211 149.501 35.6343 148.562C37.6086 142.447 39.0014 136.655 39.8128 131.183L32.7134 142.407C30.2252 143.426 28.1157 143.078 26.3848 141.361C25.0054 137.875 23.9912 134.268 23.3422 130.54L22.6931 132.752C22.5849 134.281 22.355 136.963 22.0034 140.798C21.6789 144.606 21.4355 147.556 21.2732 149.648C20.1643 150.426 18.5822 150.681 16.5267 150.413C14.4713 150.118 13.2137 149.501 12.7539 148.562C14.6741 142.877 16.2292 136.44 17.4192 129.253L17.7843 121.891C19.3259 120.952 20.881 120.483 22.4497 120.483C24.0453 120.483 25.4652 120.898 26.7093 121.73C26.8445 125.645 27.6018 130.218 28.9811 135.448L30.8472 138.706L36.8107 130.5L41.1921 121.488C43.0041 120.791 44.4511 120.443 45.5329 120.443Z" fill="#7FCAF5"/>
<path d="M52.2681 121.529C55.0538 120.59 58.3804 120.121 62.2479 120.121C66.1154 120.121 69.3608 121.073 71.9842 122.977C74.6076 124.881 75.9058 126.973 75.8787 129.253C75.8517 131.505 75.2296 133.383 74.0126 134.884C72.7956 136.36 70.97 137.714 68.5359 138.948C65.2905 139.94 62.2884 140.597 59.5298 140.919C59.2323 144.861 59.0024 147.758 58.8402 149.608C57.8665 150.359 56.352 150.641 54.2965 150.453C52.2411 150.238 50.9023 149.648 50.2803 148.683C52.1735 142.622 53.688 136.292 54.8239 129.695L54.7022 124.707L52.7955 124.506C52.2817 124.103 51.9706 123.594 51.8624 122.977C51.7813 122.36 51.9165 121.877 52.2681 121.529ZM62.1262 124.144L60.1383 132.672C60.1113 133.262 59.9896 134.965 59.7732 137.781C62.7753 137.11 64.9389 136.346 66.2641 135.488C67.9139 133.932 68.7388 132.001 68.7388 129.695C68.7117 128.274 68.1032 127.04 66.9132 125.994C65.7232 124.921 64.1275 124.304 62.1262 124.144Z" fill="#7FCAF5"/>
<path d="M99.6824 135.77L104.226 134.965C105.173 135.77 105.105 137.03 104.023 138.746L99.9663 139.028L100.981 149.729C100.088 150.426 98.6411 150.694 96.6398 150.533C94.6384 150.346 93.0292 149.823 91.8122 148.964L93.0698 139.471L87.228 139.873L83.5363 149.729C82.2651 150.399 80.7236 150.627 78.9115 150.413C77.0995 150.171 75.9501 149.635 75.4632 148.803L79.7635 140.557L77.0454 140.838C75.9906 139.766 76.0447 138.492 77.2077 137.017L81.6296 136.976L84.8344 130.862L87.5525 122.052C89.0941 121.381 90.7303 120.939 92.4613 120.724C95.7067 120.322 98.1678 120.536 99.8446 121.368L98.9521 128.086L99.6824 135.77ZM92.4613 125.753L88.3233 136.896L93.3943 136.856L93.0292 125.632L92.4613 125.753Z" fill="#7FCAF5"/>
<path d="M122.703 123.741L121.891 123.942C119.619 125.498 117.821 127.469 116.496 129.856C115.197 132.216 114.535 134.522 114.508 136.775C114.508 139.028 114.94 140.838 115.806 142.206C116.698 143.574 118.078 144.7 119.944 145.585C123.108 144.459 125.786 142.997 127.976 141.2C128.95 141.093 129.653 141.308 130.086 141.844C130.546 142.38 130.748 143.118 130.694 144.057C129.504 145.344 127.895 146.564 125.867 147.717C123.865 148.871 121.715 149.809 119.416 150.533C115.306 149.836 112.182 148.334 110.045 146.028C107.909 143.721 106.854 140.852 106.881 137.419C106.962 134.308 108.166 130.848 110.492 127.04C112.601 125.055 114.792 123.486 117.064 122.333C119.362 121.18 121.986 120.402 124.934 120C129.18 121.529 131.587 124.425 132.155 128.689C131.614 129.682 130.6 130.392 129.112 130.821C127.625 131.224 126.083 131.09 124.488 130.419C124.325 127.094 123.73 124.868 122.703 123.741Z" fill="#7FCAF5"/>
<path d="M145.041 125.31L137.617 126.195C136.265 124.559 135.967 122.91 136.724 121.247C141.457 120.872 145.447 120.657 148.692 120.603C151.937 120.55 156.211 120.657 161.512 120.925C162.512 122.159 162.323 123.835 160.944 125.954L152.059 125.029L150.071 132.672C149.476 141.898 149.125 147.556 149.017 149.648C147.881 150.426 146.271 150.681 144.189 150.413C142.134 150.118 140.876 149.514 140.416 148.602C142.39 142.407 143.919 135.863 145 128.971L145.041 125.31Z" fill="#7FCAF5"/>
<path d="M181.062 135.568C180.792 133.047 180.345 130.862 179.723 129.011C179.128 127.161 178.168 125.391 176.843 123.701C174.544 125.203 172.624 127.241 171.082 129.816C169.568 132.39 168.811 134.844 168.811 137.177C168.865 141.066 170.176 144.285 172.746 146.832C174.801 145.465 176.546 143.802 177.979 141.844C179.412 139.886 180.44 137.794 181.062 135.568ZM161.427 137.781C161.427 134.911 162.157 132.109 163.618 129.373C165.078 126.611 167.039 124.371 169.5 122.655C171.961 120.912 174.531 120.04 177.208 120.04C178.669 120.04 180.224 120.711 181.874 122.052C183.55 123.393 184.984 125.189 186.174 127.442C187.364 129.668 187.972 131.961 187.999 134.321C188.026 136.655 187.256 139.108 185.687 141.683C184.118 144.231 182.117 146.35 179.683 148.039C177.276 149.702 174.95 150.533 172.705 150.533C171.028 150.533 169.297 149.89 167.512 148.602C165.754 147.288 164.294 145.639 163.131 143.654C161.995 141.643 161.427 139.685 161.427 137.781Z" fill="#7FCAF5"/>
<path d="M3.17142 163.076C5.6146 162.875 6.90805 162.762 7.05176 162.739C7.15955 162.892 7.19548 163.111 7.15955 163.395C7.12362 163.679 7.02182 163.951 6.85415 164.211C5.12956 164.093 3.84809 164.052 3.00974 164.087L1.75223 168.789C3.24927 168.6 4.91398 168.328 6.74637 167.973C6.99787 168.091 7.11763 168.298 7.10566 168.594C7.09368 168.889 6.99787 169.179 6.81823 169.463L1.59054 169.978C0.680342 169.729 0.219252 169.339 0.207275 168.807C1.22527 166.169 1.94984 163.649 2.38098 161.248L2.72231 158.391C2.55464 158.285 2.27919 158.22 1.89594 158.196C1.68037 157.806 1.68037 157.504 1.89594 157.291C3.83611 157.102 6.17749 157.025 8.92008 157.061C9.1596 157.238 9.22547 157.552 9.11769 158.001C9.0099 158.451 8.79432 158.805 8.47096 159.066L7.3392 158.338C6.26132 158.173 5.21938 158.143 4.21337 158.25L3.6924 160.184L3.17142 163.076Z" fill="#7FCAF5"/>
<path d="M21.8738 156.937C23.6343 156.937 25.0176 157.469 26.0236 158.533C27.0296 159.598 27.5506 160.97 27.5865 162.65C27.6104 164.034 27.2871 165.299 26.6164 166.447C25.9457 167.582 24.9397 168.517 23.5984 169.25C22.1732 169.723 20.6941 169.966 19.1611 169.978C18.3587 169.765 17.8557 169.398 17.6521 168.878C18.5623 165.897 19.215 163.312 19.6102 161.124L19.6462 158.232L18.9994 158.374C18.7479 158.208 18.5982 158.007 18.5503 157.77C18.5144 157.534 18.5623 157.345 18.694 157.203C19.5444 157.025 20.6043 156.937 21.8738 156.937ZM20.1492 163.679L19.4486 168.718C20.9216 168.718 22.1612 168.594 23.1672 168.345C24.2211 167.6 24.9816 166.784 25.4487 165.897C25.9158 165.01 26.1374 163.992 26.1134 162.845C26.0775 161.39 25.6403 160.219 24.802 159.332C23.9756 158.433 22.8319 158.043 21.3708 158.161C20.6881 161.177 20.2809 163.017 20.1492 163.679Z" fill="#7FCAF5"/>
<path d="M40.6676 169.978C39.6257 169.978 38.7873 169.658 38.1526 169.02C37.5298 168.381 37.1586 167.718 37.0388 167.032C37.0867 166.737 37.2005 166.074 37.3801 165.045C37.5717 164.004 37.6915 163.312 37.7394 162.969C37.7993 162.626 37.8891 162.076 38.0089 161.319C38.1885 160.195 38.3442 158.882 38.476 157.38C38.967 157.084 39.3442 156.937 39.6077 156.937C39.8832 156.937 40.1347 156.99 40.3622 157.096C39.1047 161.248 38.476 164.513 38.476 166.89C38.476 167.364 38.6616 167.801 39.0329 168.203C39.4041 168.594 39.8832 168.848 40.47 168.966C41.0688 169.085 41.7335 168.972 42.4641 168.629C43.2066 167.908 43.7575 166.979 44.1168 165.844C44.4761 164.708 44.8234 163.147 45.1588 161.159V157.38C45.6498 157.084 46.027 156.937 46.2905 156.937C46.566 156.937 46.8175 156.99 47.045 157.096C46.8893 157.77 46.6857 158.788 46.4342 160.148C46.1947 161.497 45.9851 162.591 45.8055 163.431C45.6378 164.27 45.4701 164.992 45.3025 165.595C45.1348 166.198 44.9132 166.802 44.6378 167.405C44.3623 168.008 44.0569 168.481 43.7216 168.824C42.9551 169.593 41.9371 169.978 40.6676 169.978Z" fill="#7FCAF5"/>
<path d="M62.0151 157.948C60.6259 158.291 59.4222 159.095 58.4042 160.361C57.3982 161.627 56.8952 162.91 56.8952 164.211C56.8952 165.501 57.1527 166.5 57.6677 167.21C58.1827 167.908 59.0031 168.464 60.1288 168.878C60.7516 168.617 61.3684 168.274 61.9792 167.849C62.6019 167.423 63.075 167.015 63.3984 166.624C63.6738 166.553 63.8894 166.607 64.0451 166.784C64.2128 166.961 64.2846 167.157 64.2607 167.369C63.9253 167.795 63.3744 168.257 62.6079 168.753C61.8534 169.25 61.0929 169.658 60.3264 169.978C58.6378 169.54 57.4282 168.854 56.6976 167.92C55.967 166.973 55.5898 165.779 55.5658 164.335C55.5658 163.2 55.9611 161.916 56.7515 160.485C58.4641 158.368 60.3983 157.132 62.554 156.777C63.2487 157.037 63.8056 157.487 64.2247 158.125C64.6559 158.764 64.8954 159.421 64.9433 160.095C64.3565 160.544 63.7816 160.669 63.2187 160.467C63.1109 159.344 62.7996 158.498 62.2846 157.93L62.0151 157.948Z" fill="#7FCAF5"/>
<path d="M81.6517 163.963L83.4841 163.59C83.6278 163.685 83.6877 163.856 83.6638 164.105C83.6518 164.341 83.55 164.59 83.3584 164.85L81.7236 164.939L82.1009 169.978C81.3703 170.061 80.8553 169.913 80.5559 169.534L80.5379 165.01L78.1307 165.134L77.0528 165.294L74.8791 169.978C74.1007 170.049 73.6036 169.907 73.3881 169.552L75.5797 165.506L74.1605 165.719C73.8492 165.317 73.8911 164.903 74.2863 164.477L76.1726 164.389L77.3582 162.206L79.4062 157.38C80.0649 156.966 80.8074 156.883 81.6338 157.132L81.3643 160.219L81.6517 163.963ZM77.5019 164.318L80.5379 164.176L80.3403 158.516L80.1787 158.551L77.5019 164.318Z" fill="#7FCAF5"/>
<path d="M99.3357 157.948C97.9465 158.291 96.7429 159.095 95.7249 160.361C94.7188 161.627 94.2158 162.91 94.2158 164.211C94.2158 165.501 94.4733 166.5 94.9883 167.21C95.5033 167.908 96.3237 168.464 97.4495 168.878C98.0722 168.617 98.689 168.274 99.2998 167.849C99.9226 167.423 100.396 167.015 100.719 166.624C100.994 166.553 101.21 166.607 101.366 166.784C101.533 166.961 101.605 167.157 101.581 167.369C101.246 167.795 100.695 168.257 99.9286 168.753C99.174 169.25 98.4136 169.658 97.6471 169.978C95.9584 169.54 94.7488 168.854 94.0182 167.92C93.2877 166.973 92.9104 165.779 92.8865 164.335C92.8865 163.2 93.2817 161.916 94.0721 160.485C95.7847 158.368 97.7189 157.132 99.8747 156.777C100.569 157.037 101.126 157.487 101.545 158.125C101.977 158.764 102.216 159.421 102.264 160.095C101.677 160.544 101.102 160.669 100.539 160.467C100.432 159.344 100.12 158.498 99.6052 157.93L99.3357 157.948Z" fill="#7FCAF5"/>
<path d="M113.367 157.38C113.858 157.084 114.236 156.937 114.499 156.937C114.763 156.937 115.014 156.99 115.254 157.096L113.906 162.863C113.846 163.466 113.709 164.578 113.493 166.198C113.278 167.807 113.122 169.067 113.026 169.978C112.152 170.061 111.583 169.877 111.319 169.428C112.194 165.879 112.787 163.123 113.098 161.159L113.367 157.38Z" fill="#7FCAF5"/>
<path d="M132.547 163.608C132.391 162.295 132.139 161.171 131.792 160.237C131.457 159.29 130.954 158.492 130.283 157.841C128.882 158.492 127.756 159.403 126.906 160.574C126.055 161.745 125.63 163.022 125.63 164.406C125.642 165.376 125.864 166.299 126.295 167.174C126.738 168.038 127.367 168.665 128.181 169.055C129.343 168.393 130.253 167.63 130.912 166.766C131.57 165.903 132.115 164.85 132.547 163.608ZM130.391 156.937C130.918 156.937 131.445 157.268 131.972 157.93C132.511 158.593 132.948 159.438 133.283 160.467C133.63 161.497 133.81 162.52 133.822 163.537C133.834 164.282 133.517 165.169 132.87 166.198C132.223 167.228 131.451 168.115 130.552 168.86C129.654 169.605 128.876 169.978 128.217 169.978C127.558 169.978 126.912 169.682 126.277 169.091C125.642 168.499 125.145 167.801 124.786 166.997C124.439 166.181 124.259 165.418 124.247 164.708C124.235 163.454 124.534 162.218 125.145 161C125.768 159.781 126.558 158.8 127.516 158.054C128.487 157.309 129.445 156.937 130.391 156.937Z" fill="#7FCAF5"/>
<path d="M152.513 157.38C153.004 157.084 153.381 156.937 153.645 156.937C153.92 156.937 154.171 156.99 154.399 157.096L152.998 162.863C152.938 163.407 152.788 164.489 152.549 166.11C152.321 167.718 152.153 169.008 152.046 169.978C151.303 170.037 150.74 169.895 150.357 169.552C148.884 166.748 147.477 163.277 146.135 159.137L145.327 162.863C145.267 163.454 145.123 164.56 144.896 166.181C144.668 167.789 144.501 169.055 144.393 169.978C143.53 170.061 142.956 169.877 142.668 169.428C143.291 167.038 143.71 165.341 143.926 164.335C144.141 163.318 144.345 162.259 144.536 161.159L144.842 157.38C145.357 157.084 145.74 156.937 145.992 156.937C146.243 156.937 146.489 156.99 146.728 157.096C147.578 160.077 148.59 162.981 149.764 165.808L150.878 167.742C150.95 167.411 151.058 166.932 151.201 166.305C151.345 165.666 151.459 165.152 151.543 164.761C151.794 163.567 152.016 162.366 152.207 161.159L152.513 157.38Z" fill="#7FCAF5"/>
<path d="M170.225 163.963L172.058 163.59C172.201 163.685 172.261 163.856 172.237 164.105C172.225 164.341 172.124 164.59 171.932 164.85L170.297 164.939L170.674 169.978C169.944 170.061 169.429 169.913 169.13 169.534L169.112 165.01L166.704 165.134L165.626 165.294L163.453 169.978C162.674 170.049 162.177 169.907 161.962 169.552L164.153 165.506L162.734 165.719C162.423 165.317 162.465 164.903 162.86 164.477L164.746 164.389L165.932 162.206L167.98 157.38C168.638 156.966 169.381 156.883 170.207 157.132L169.938 160.219L170.225 163.963ZM166.076 164.318L169.112 164.176L168.914 158.516L168.752 158.551L166.076 164.318Z" fill="#7FCAF5"/>
<path d="M183.167 157.38C183.574 157.132 183.909 156.984 184.173 156.937C184.436 156.889 184.73 156.942 185.053 157.096L183.652 163.342L182.466 168.842C183.951 168.665 185.682 168.387 187.658 168.008C187.897 168.138 188.011 168.345 187.999 168.629C187.987 168.901 187.897 169.167 187.73 169.428L182.304 169.978C181.394 169.753 180.933 169.38 180.921 168.86C181.628 167.015 182.298 164.448 182.933 161.159L183.167 157.38Z" fill="#7FCAF5"/>
<path fill-rule="evenodd" clip-rule="evenodd" d="M90.2541 20.526C89.2381 21.5909 88.4787 23.2677 88.4787 25.6754C88.4787 30.1198 89.4552 34.3333 91.205 38.1178C91.5184 38.7956 91.2215 39.5983 90.5419 39.9109C89.8624 40.2234 89.0575 39.9273 88.7441 39.2496C86.8336 35.1175 85.7688 30.5185 85.7688 25.6754C85.7688 22.6778 86.7284 20.3006 88.2909 18.6629C89.8456 17.0334 91.924 16.2161 93.9998 16.2161C96.0757 16.2161 98.1541 17.0334 99.7087 18.6629C101.271 20.3006 102.231 22.6778 102.231 25.6754C102.231 33.3691 99.5441 40.4411 95.0556 46.0062C94.5865 46.5877 93.7336 46.6799 93.1506 46.2121C92.5675 45.7443 92.475 44.8937 92.944 44.3121C97.0596 39.2095 99.521 32.7305 99.521 25.6754C99.521 23.2677 98.7616 21.5909 97.7455 20.526C96.7217 19.4528 95.362 18.9188 93.9998 18.9188C92.6376 18.9188 91.278 19.4528 90.2541 20.526ZM62.5832 44.2697C64.2272 42.7135 66.6128 41.7582 69.6209 41.7582C77.3435 41.7582 84.4426 44.4339 90.0294 48.9046C90.6131 49.3717 90.7066 50.2222 90.2383 50.8043C89.77 51.3864 88.9172 51.4797 88.3335 51.0126C83.2105 46.9131 76.7052 44.4609 69.6209 44.4609C67.2024 44.4609 65.518 45.2178 64.4487 46.23C63.3713 47.2498 62.8359 48.6033 62.8359 49.9586C62.8359 51.3139 63.3713 52.6674 64.4487 53.6872C65.518 54.6994 67.2024 55.4563 69.6209 55.4563C73.9726 55.4563 78.199 54.4814 82.0866 52.6954C82.7663 52.3831 83.5711 52.6795 83.8841 53.3574C84.1972 54.0353 83.9 54.8379 83.2204 55.1502C78.994 57.0918 74.382 58.1591 69.6209 58.1591C66.6128 58.1591 64.2272 57.2037 62.5832 55.6475C60.9472 54.0989 60.126 52.0279 60.126 49.9586C60.126 47.8893 60.9472 45.8183 62.5832 44.2697ZM104.638 44.7746C108.815 42.8385 113.472 41.7582 118.379 41.7582C121.387 41.7582 123.772 42.7135 125.416 44.2697C127.052 45.8183 127.874 47.8893 127.874 49.9586C127.874 52.0279 127.052 54.0989 125.416 55.6475C123.772 57.2037 121.387 58.1591 118.379 58.1591C110.656 58.1591 103.557 55.4833 97.9702 51.0126C97.3866 50.5456 97.2931 49.695 97.7614 49.1129C98.2297 48.5308 99.0825 48.4375 99.6662 48.9046C104.789 53.0041 111.294 55.4563 118.379 55.4563C120.797 55.4563 122.482 54.6994 123.551 53.6872C124.628 52.6674 125.164 51.3139 125.164 49.9586C125.164 48.6033 124.628 47.2498 123.551 46.23C122.482 45.2178 120.797 44.4609 118.379 44.4609C113.875 44.4609 109.607 45.4519 105.78 47.2256C105.101 47.5401 104.295 47.2464 103.98 46.5696C103.665 45.8928 103.959 45.0891 104.638 44.7746ZM94.8491 53.7051C95.4322 54.1729 95.5246 55.0235 95.0556 55.6051C90.9401 60.7077 88.4787 67.1867 88.4787 74.2418C88.4787 76.6809 89.2406 78.38 90.2588 79.4581C91.2839 80.5435 92.6422 81.081 93.9998 81.081C95.3575 81.081 96.7157 80.5435 97.7408 79.4581C98.759 78.38 99.521 76.6809 99.521 74.2418C99.521 69.7854 98.5391 65.5611 96.7804 61.7687C96.4663 61.0913 96.7622 60.2882 97.4414 59.9749C98.1206 59.6616 98.9258 59.9567 99.24 60.6341C101.16 64.7749 102.231 69.3856 102.231 74.2418C102.231 77.263 101.274 79.6591 99.7134 81.3113C98.16 82.956 96.0802 83.7837 93.9998 83.7837C91.9194 83.7837 89.8396 82.956 88.2862 81.3113C86.7259 79.6591 85.7688 77.263 85.7688 74.2418C85.7688 66.5481 88.4555 59.4761 92.944 53.9111C93.4131 53.3295 94.266 53.2373 94.8491 53.7051Z" fill="#7FCAF5"/>
<path fill-rule="evenodd" clip-rule="evenodd" d="M50.6415 45.9459C48.3965 45.9459 46.5766 47.7609 46.5766 49.9999C46.5766 52.2389 48.3965 54.054 50.6415 54.054C52.8864 54.054 54.7063 52.2389 54.7063 49.9999C54.7063 47.7609 52.8864 45.9459 50.6415 45.9459ZM43.8667 49.9999C43.8667 46.2683 46.8999 43.2432 50.6415 43.2432C54.3831 43.2432 57.4162 46.2683 57.4162 49.9999C57.4162 53.7316 54.3831 56.7567 50.6415 56.7567C46.8999 56.7567 43.8667 53.7316 43.8667 49.9999Z" fill="#7FCAF5"/>
<path fill-rule="evenodd" clip-rule="evenodd" d="M93.9999 89.189C91.7549 89.189 89.935 91.0041 89.935 93.2431C89.935 95.4821 91.7549 97.2971 93.9999 97.2971C96.2448 97.2971 98.0647 95.4821 98.0647 93.2431C98.0647 91.0041 96.2448 89.189 93.9999 89.189ZM87.2251 93.2431C87.2251 89.5114 90.2583 86.4863 93.9999 86.4863C97.7415 86.4863 100.775 89.5114 100.775 93.2431C100.775 96.9747 97.7415 99.9998 93.9999 99.9998C90.2583 99.9998 87.2251 96.9747 87.2251 93.2431Z" fill="#7FCAF5"/>
<path fill-rule="evenodd" clip-rule="evenodd" d="M93.9999 2.7027C91.7549 2.7027 89.935 4.51777 89.935 6.75676C89.935 8.99575 91.7549 10.8108 93.9999 10.8108C96.2448 10.8108 98.0647 8.99575 98.0647 6.75676C98.0647 4.51777 96.2448 2.7027 93.9999 2.7027ZM87.2251 6.75676C87.2251 3.0251 90.2583 0 93.9999 0C97.7415 0 100.775 3.0251 100.775 6.75676C100.775 10.4884 97.7415 13.5135 93.9999 13.5135C90.2583 13.5135 87.2251 10.4884 87.2251 6.75676Z" fill="#7FCAF5"/>
<path fill-rule="evenodd" clip-rule="evenodd" d="M137.359 45.9459C135.114 45.9459 133.294 47.7609 133.294 49.9999C133.294 52.2389 135.114 54.054 137.359 54.054C139.604 54.054 141.424 52.2389 141.424 49.9999C141.424 47.7609 139.604 45.9459 137.359 45.9459ZM130.584 49.9999C130.584 46.2683 133.617 43.2432 137.359 43.2432C141.1 43.2432 144.134 46.2683 144.134 49.9999C144.134 53.7316 141.1 56.7567 137.359 56.7567C133.617 56.7567 130.584 53.7316 130.584 49.9999Z" fill="#7FCAF5"/>
</svg>
