<svg width="44" height="27" viewBox="0 0 44 27" fill="none" xmlns="http://www.w3.org/2000/svg">
<path fill-rule="evenodd" clip-rule="evenodd" d="M0 2.93478C0 1.31395 1.3133 0 2.93333 0H41.0667C42.6867 0 44 1.31395 44 2.93478V24.0652C44 25.6861 42.6867 27 41.0667 27H2.93333C1.3133 27 0 25.6861 0 24.0652V2.93478ZM2.93333 1.17391C1.96131 1.17391 1.17333 1.96228 1.17333 2.93478V4.98913H42.8267V2.93478C42.8267 1.96228 42.0387 1.17391 41.0667 1.17391H2.93333ZM42.8267 6.16304H1.17333V8.21739H42.8267V6.16304ZM42.8267 9.3913H1.17333V24.0652C1.17333 25.0377 1.96131 25.8261 2.93333 25.8261H41.0667C42.0387 25.8261 42.8267 25.0377 42.8267 24.0652V9.3913Z" fill="#66A2C4"/>
<path d="M1.17333 6.16304H42.8267V8.21739H1.17333V6.16304Z" fill="#66A2C4"/>
<rect x="3.51953" y="20.5435" width="3.52" height="2.93478" rx="1" fill="#7FCAF5"/>
<rect x="8.21289" y="20.5435" width="5.86667" height="2.93478" rx="1" fill="#7FCAF5"/>
<rect x="18.1875" y="20.5435" width="5.86667" height="2.93478" rx="1" fill="#7FCAF5"/>
</svg>
