<svg width="25" height="25" viewBox="0 0 25 25" fill="none" xmlns="http://www.w3.org/2000/svg">
<path d="M6.49414 4.05273C6.22461 4.05273 6.00586 4.27148 6.00586 4.54102C6.00586 4.81055 6.22461 5.0293 6.49414 5.0293C6.76367 5.0293 6.98242 4.81055 6.98242 4.54102C6.98242 4.27148 6.76367 4.05273 6.49414 4.05273Z" fill="#7FCAF5"/>
<path d="M12.5 0C5.7627 0 0 5.752 0 12.5C0 19.2388 5.75269 25 12.5 25C19.2373 25 25 19.248 25 12.5C25 5.76118 19.2473 0 12.5 0ZM12.5 24.0234C6.25366 24.0234 0.976562 18.7463 0.976562 12.5C0.976562 6.25366 6.25366 0.976562 12.5 0.976562C18.7463 0.976562 24.0234 6.25366 24.0234 12.5C24.0234 18.7463 18.7463 24.0234 12.5 24.0234Z" fill="#7FCAF5"/>
<path d="M12.5 2.09961C10.9343 2.09961 9.27808 2.46094 7.95596 3.09097C7.71255 3.20698 7.60918 3.49839 7.7252 3.7418C7.84116 3.98521 8.13247 4.08867 8.37603 3.97256C9.57148 3.40288 11.0747 3.07617 12.5 3.07617C17.6083 3.07617 21.9238 7.39175 21.9238 12.5C21.9238 17.6083 17.6083 21.9238 12.5 21.9238C7.39175 21.9238 3.07617 17.6083 3.07617 12.5C3.07617 10.1667 3.93218 7.86694 5.42476 6.19038C5.6041 5.98896 5.58618 5.68032 5.38477 5.50103C5.1833 5.32163 4.87476 5.33975 4.69541 5.54102C3.0457 7.39404 2.09961 9.93047 2.09961 12.5C2.09961 18.1508 6.84097 22.9004 12.5 22.9004C18.1508 22.9004 22.9004 18.159 22.9004 12.5C22.9004 6.84922 18.159 2.09961 12.5 2.09961Z" fill="#7FCAF5"/>
<path d="M18.3594 10.0586H14.9414V6.64062C14.9414 6.371 14.7228 6.15234 14.4531 6.15234H10.5469C10.2772 6.15234 10.0586 6.371 10.0586 6.64062V10.0586H6.64062C6.371 10.0586 6.15234 10.2772 6.15234 10.5469V14.4531C6.15234 14.7228 6.371 14.9414 6.64062 14.9414H10.0586V18.3594C10.0586 18.629 10.2772 18.8477 10.5469 18.8477H14.4531C14.7228 18.8477 14.9414 18.629 14.9414 18.3594V14.9414H18.3594C18.629 14.9414 18.8477 14.7228 18.8477 14.4531V10.5469C18.8477 10.2772 18.629 10.0586 18.3594 10.0586ZM17.8711 13.9648H14.4531C14.1835 13.9648 13.9648 14.1835 13.9648 14.4531V17.8711H11.0352V14.4531C11.0352 14.1835 10.8165 13.9648 10.5469 13.9648H7.12891V11.0352H10.5469C10.8165 11.0352 11.0352 10.8165 11.0352 10.5469V7.12891H13.9648V10.5469C13.9648 10.8165 14.1835 11.0352 14.4531 11.0352H17.8711V13.9648Z" fill="#7FCAF5"/>
</svg>
