<svg width="17" height="16" viewBox="0 0 17 16" fill="none" xmlns="http://www.w3.org/2000/svg">
<path d="M13.8752 8C13.8752 10.7629 11.6393 13 8.88456 13C6.12978 13 3.89392 10.7629 3.89392 8C3.89392 5.2371 6.12978 3 8.88456 3C11.6393 3 13.8752 5.2371 13.8752 8Z" fill="white" stroke="#094B0B" stroke-width="2"/>
<g filter="url(#filter0_d)">
<ellipse cx="8.883" cy="8" rx="6.98907" ry="7" fill="white"/>
<path d="M14.3721 8C14.3721 11.0398 11.9123 13.5 8.883 13.5C5.85367 13.5 3.39392 11.0398 3.39392 8C3.39392 4.96022 5.85367 2.5 8.883 2.5C11.9123 2.5 14.3721 4.96022 14.3721 8Z" stroke="#808B92" stroke-width="3"/>
</g>
<defs>
<filter id="filter0_d" x="0.893921" y="0" width="15.9781" height="16" filterUnits="userSpaceOnUse" color-interpolation-filters="sRGB">
<feFlood flood-opacity="0" result="BackgroundImageFix"/>
<feColorMatrix in="SourceAlpha" type="matrix" values="0 0 0 0 0 0 0 0 0 0 0 0 0 0 0 0 0 0 127 0"/>
<feMorphology radius="1" operator="dilate" in="SourceAlpha" result="effect1_dropShadow"/>
<feOffset/>
<feColorMatrix type="matrix" values="0 0 0 0 0.92549 0 0 0 0 0.933333 0 0 0 0 0.937255 0 0 0 1 0"/>
<feBlend mode="normal" in2="BackgroundImageFix" result="effect1_dropShadow"/>
<feBlend mode="normal" in="SourceGraphic" in2="effect1_dropShadow" result="shape"/>
</filter>
</defs>
</svg>
