<svg width="16" height="16" viewBox="0 0 16 16" fill="none" xmlns="http://www.w3.org/2000/svg">
<g filter="url(#filter0_d)">
<path d="M14.9999 8C14.9999 11.866 11.8659 15 7.99988 15C4.13388 15 0.999878 11.866 0.999878 8C0.999878 4.13401 4.13388 1 7.99988 1C11.8659 1 14.9999 4.13401 14.9999 8Z" fill="#72B6DD"/>
</g>
<g filter="url(#filter1_d)">
<path fill-rule="evenodd" clip-rule="evenodd" d="M15.9999 8C15.9999 12.4183 12.4182 16 7.99988 16C3.5816 16 -0.00012207 12.4183 -0.00012207 8C-0.00012207 3.58172 3.5816 0 7.99988 0C12.4182 0 15.9999 3.58172 15.9999 8ZM7.99988 15C11.8659 15 14.9999 11.866 14.9999 8C14.9999 4.13401 11.8659 1 7.99988 1C4.13388 1 0.999878 4.13401 0.999878 8C0.999878 11.866 4.13388 15 7.99988 15Z" fill="#72B6DD" fill-opacity="0.3"/>
</g>
<path fill-rule="evenodd" clip-rule="evenodd" d="M11.9999 5.70972L6.97248 11L3.99988 8.02092L4.62685 7.29453L6.95699 9.62974L11.3567 5L11.9999 5.70972Z" fill="white"/>
<defs>
<filter id="filter0_d" x="0.999878" y="1" width="14" height="14" filterUnits="userSpaceOnUse" color-interpolation-filters="sRGB">
<feFlood flood-opacity="0" result="BackgroundImageFix"/>
<feColorMatrix in="SourceAlpha" type="matrix" values="0 0 0 0 0 0 0 0 0 0 0 0 0 0 0 0 0 0 127 0"/>
<feOffset/>
<feColorMatrix type="matrix" values="0 0 0 0 0.498039 0 0 0 0 0.792157 0 0 0 0 0.960784 0 0 0 0.5 0"/>
<feBlend mode="normal" in2="BackgroundImageFix" result="effect1_dropShadow"/>
<feBlend mode="normal" in="SourceGraphic" in2="effect1_dropShadow" result="shape"/>
</filter>
<filter id="filter1_d" x="-0.00012207" y="0" width="16" height="16" filterUnits="userSpaceOnUse" color-interpolation-filters="sRGB">
<feFlood flood-opacity="0" result="BackgroundImageFix"/>
<feColorMatrix in="SourceAlpha" type="matrix" values="0 0 0 0 0 0 0 0 0 0 0 0 0 0 0 0 0 0 127 0"/>
<feOffset/>
<feColorMatrix type="matrix" values="0 0 0 0 0.498039 0 0 0 0 0.792157 0 0 0 0 0.960784 0 0 0 0.5 0"/>
<feBlend mode="normal" in2="BackgroundImageFix" result="effect1_dropShadow"/>
<feBlend mode="normal" in="SourceGraphic" in2="effect1_dropShadow" result="shape"/>
</filter>
</defs>
</svg>
