<svg width="20" height="23" viewBox="0 0 20 23" fill="none" xmlns="http://www.w3.org/2000/svg">
<path d="M19.1666 3.28573H13.8V2.46428C13.8 1.1033 12.7702 0 11.5 0H8.43332C7.16307 0 6.13333 1.1033 6.13333 2.46428V3.28573H0.766678C0.343246 3.28573 0 3.65349 0 4.10717C0 4.56085 0.343291 4.92857 0.766678 4.92857H1.60002L3.06667 22.2533C3.10283 22.6775 3.43574 23.0017 3.83334 23H16.1C16.4976 23.0018 16.8304 22.6776 16.8666 22.2533L18.3332 4.92857H19.1666C19.5901 4.92857 19.9333 4.5608 19.9333 4.10712C19.9333 3.65344 19.59 3.28573 19.1666 3.28573ZM7.66665 2.46428C7.66665 2.0106 8.00989 1.64284 8.43332 1.64284H11.5C11.9234 1.64284 12.2667 2.0106 12.2667 2.46428V3.28573H7.66669V2.46428H7.66665ZM15.4 21.3571H4.53331L3.14335 4.92857H6.90001H16.7938L15.4 21.3571Z" fill="#98A1A7"/>
</svg>
