<svg width="25" height="25" viewBox="0 0 25 25" fill="none" xmlns="http://www.w3.org/2000/svg">
<path d="M1 2.60465H9.32758C9.77069 2.60465 10.1299 2.24544 10.1299 1.80233V1.80233C10.1299 1.35921 10.4891 1 10.9322 1H13.9774C14.4283 1 14.8005 1.35219 14.8255 1.80233V1.80233C14.8505 2.25246 15.2228 2.60465 15.6737 2.60465H24M21.8968 5.27907L18.6239 22.4099C18.4476 23.3326 17.6406 24 16.7012 24H8.2988C7.35938 24 6.55242 23.3326 6.37613 22.4099L3.1032 5.27907" stroke="#808B92" stroke-linecap="round"/>
<path d="M18.2376 5.27905L16.6031 11.9651M6.76221 5.27905L8.39675 11.9651M12.4554 5.27905V13.3507" stroke="#808B92" stroke-linecap="round"/>
</svg>
