<svg width="25" height="25" viewBox="0 0 25 25" fill="none" xmlns="http://www.w3.org/2000/svg">
<g clip-path="url(#clip0)">
<path d="M1.42588 21.5117L1.62518 21.9703L1.42588 21.5117ZM10.4773 17.5779L10.6766 18.0365V18.0365L10.4773 17.5779ZM21.6856 20.1457C21.4323 20.0357 21.1378 20.1517 21.0277 20.405C20.9177 20.6583 21.0338 20.9528 21.287 21.0629L21.6856 20.1457ZM23.5742 21.5117L23.7735 21.0531V21.0531L23.5742 21.5117ZM14.5228 17.5779L14.3235 18.0365L14.3235 18.0365L14.5228 17.5779ZM16.7939 19.1101C17.0471 19.2202 17.3417 19.1041 17.4517 18.8508C17.5618 18.5976 17.4457 18.303 17.1925 18.193L16.7939 19.1101ZM1.62518 21.9703L10.6766 18.0365L10.278 17.1193L1.22659 21.0531L1.62518 21.9703ZM21.287 21.0629L23.3749 21.9703L23.7735 21.0531L21.6856 20.1457L21.287 21.0629ZM14.3235 18.0365L16.7939 19.1101L17.1925 18.193L14.7221 17.1193L14.3235 18.0365ZM22.9674 25.0098C25.2022 25.0098 25.7948 21.9316 23.7735 21.0531L23.3749 21.9703C24.4332 22.4302 24.083 24.0098 22.9674 24.0098V25.0098ZM10.6766 18.0365C11.8411 17.5303 13.1589 17.5303 14.3235 18.0365L14.7221 17.1193C13.3033 16.5027 11.6968 16.5027 10.278 17.1193L10.6766 18.0365ZM1.22659 21.0531C-0.794687 21.9316 -0.202119 25.0098 2.03272 25.0098V24.0098C0.917096 24.0098 0.5669 22.4302 1.62518 21.9703L1.22659 21.0531ZM22.9674 24.0098H2.03272V25.0098H22.9674V24.0098Z" fill="#7FCAF5"/>
<path d="M16.9374 2.19015C18.2126 3.36507 19.0115 5.04912 19.0115 6.91976C19.0115 10.4707 16.1328 13.3493 12.5819 13.3493C9.03095 13.3493 6.15234 10.4707 6.15234 6.91976C6.15234 3.36881 9.03095 0.490204 12.5819 0.490204C13.3836 0.490204 14.151 0.636938 14.8588 0.905014" stroke="#66A2C4" stroke-linecap="round" stroke-linejoin="round"/>
</g>
<defs>
<clipPath id="clip0">
<rect width="25" height="25" fill="white"/>
</clipPath>
</defs>
</svg>
